<svg xmlns="http://www.w3.org/2000/svg" xmlns:xlink="http://www.w3.org/1999/xlink" contentStyleType="text/css" data-diagram-type="CLASS" height="1695px" preserveAspectRatio="none" style="width:775px;height:1695px;background:#FFFFFF;" version="1.1" viewBox="0 0 775 1695" width="775px" zoomAndPan="magnify"><defs/><g><!--class DiagramConversation--><g class="entity" data-entity="DiagramConversation" data-source-line="8" data-uid="ent0002" id="entity_DiagramConversation"><rect fill="#ADD8E6" height="238.6792" rx="2.5" ry="2.5" style="stroke:#000080;stroke-width:0.5;" width="313.7129" x="25.8707" y="1131.85"/><ellipse cx="106.4125" cy="1147.85" fill="#ADD1B2" rx="11" ry="11" style="stroke:#181818;stroke-width:1;"/><path d="M106.5218,1143.3813 Q105.6,1143.3813 104.8656,1143.6938 Q104.1468,1144.0063 103.6468,1144.6 Q103.1468,1145.1781 102.8656,1146.0531 Q102.6,1146.9281 102.6,1148.0219 Q102.6,1149.4594 103.0375,1150.5063 Q103.4906,1151.5531 104.3343,1152.1 Q105.1937,1152.6469 106.5062,1152.6469 Q107.2875,1152.6469 107.975,1152.5219 Q108.6781,1152.3813 109.6781,1152.0688 L109.6781,1153.9438 Q108.8187,1154.2719 108.0531,1154.3969 Q107.3031,1154.5219 106.2875,1154.5219 Q104.3656,1154.5219 103.0531,1153.725 Q101.7562,1152.9125 101.1,1151.4438 Q100.4437,1149.9594 100.4437,1147.9906 Q100.4437,1146.5688 100.8343,1145.3969 Q101.2406,1144.2094 102.0218,1143.3344 Q102.8031,1142.4594 103.9437,1141.9906 Q105.0843,1141.5063 106.5531,1141.5063 Q107.5062,1141.5063 108.3968,1141.7094 Q109.3031,1141.8969 110.2406,1142.3656 L109.4125,1144.1469 Q108.6312,1143.7719 107.975,1143.5844 Q107.3187,1143.3813 106.5218,1143.3813 Z " fill="#000000"/><text fill="#000000" font-family="sans-serif" font-size="14" lengthAdjust="spacing" textLength="144.1295" x="126.9125" y="1153.282">DiagramConversation</text><line style="stroke:#000080;stroke-width:0.5;" x1="26.8707" x2="338.5836" y1="1163.85" y2="1163.85"/><text fill="#000000" font-family="sans-serif" font-size="14" lengthAdjust="spacing" textLength="67.0177" x="31.8707" y="1182.8159">+id: String</text><text fill="#000000" font-family="sans-serif" font-size="14" lengthAdjust="spacing" textLength="123.5636" x="31.8707" y="1201.8839">+diagramId: String</text><text fill="#000000" font-family="sans-serif" font-size="14" lengthAdjust="spacing" textLength="97.1876" x="31.8707" y="1220.9518">+userId: String</text><text fill="#000000" font-family="sans-serif" font-size="14" lengthAdjust="spacing" textLength="116.8996" x="31.8707" y="1240.0197">+sessionId: String</text><text fill="#000000" font-family="sans-serif" font-size="14" lengthAdjust="spacing" textLength="142.6174" x="31.8707" y="1259.0876">+createdAt: DateTime</text><text fill="#000000" font-family="sans-serif" font-size="14" lengthAdjust="spacing" textLength="148.0914" x="31.8707" y="1278.1555">+updatedAt: DateTime</text><line style="stroke:#000080;stroke-width:1;" x1="26.8707" x2="338.5836" y1="1286.2575" y2="1286.2575"/><text fill="#000000" font-family="sans-serif" font-size="14" lengthAdjust="spacing" textLength="276.5969" x="31.8707" y="1305.2234">+getConversation(): DiagramConversation</text><text fill="#000000" font-family="sans-serif" font-size="14" lengthAdjust="spacing" textLength="296.2389" x="31.8707" y="1324.2914">+createConversation(): DiagramConversation</text><text fill="#000000" font-family="sans-serif" font-size="14" lengthAdjust="spacing" textLength="301.7129" x="31.8707" y="1343.3593">+updateConversation(): DiagramConversation</text><text fill="#000000" font-family="sans-serif" font-size="14" lengthAdjust="spacing" textLength="179.6753" x="31.8707" y="1362.4272">+deleteConversation(): void</text></g><!--class ConversationMessage--><g class="entity" data-entity="ConversationMessage" data-source-line="22" data-uid="ent0003" id="entity_ConversationMessage"><rect fill="#ADD8E6" height="257.7471" rx="2.5" ry="2.5" style="stroke:#000080;stroke-width:0.5;" width="286.315" x="39.5707" y="1430.53"/><ellipse cx="105.7415" cy="1446.53" fill="#ADD1B2" rx="11" ry="11" style="stroke:#181818;stroke-width:1;"/><path d="M105.8509,1442.0613 Q104.929,1442.0613 104.1946,1442.3738 Q103.4759,1442.6863 102.9759,1443.28 Q102.4759,1443.8581 102.1946,1444.7331 Q101.929,1445.6081 101.929,1446.7019 Q101.929,1448.1394 102.3665,1449.1863 Q102.8196,1450.2331 103.6634,1450.78 Q104.5227,1451.3269 105.8352,1451.3269 Q106.6165,1451.3269 107.304,1451.2019 Q108.0071,1451.0613 109.0071,1450.7488 L109.0071,1452.6238 Q108.1477,1452.9519 107.3821,1453.0769 Q106.6321,1453.2019 105.6165,1453.2019 Q103.6946,1453.2019 102.3821,1452.405 Q101.0852,1451.5925 100.429,1450.1238 Q99.7727,1448.6394 99.7727,1446.6706 Q99.7727,1445.2488 100.1634,1444.0769 Q100.5696,1442.8894 101.3509,1442.0144 Q102.1321,1441.1394 103.2727,1440.6706 Q104.4134,1440.1863 105.8821,1440.1863 Q106.8352,1440.1863 107.7259,1440.3894 Q108.6321,1440.5769 109.5696,1441.0456 L108.7415,1442.8269 Q107.9602,1442.4519 107.304,1442.2644 Q106.6477,1442.0613 105.8509,1442.0613 Z " fill="#000000"/><text fill="#000000" font-family="sans-serif" font-size="14" lengthAdjust="spacing" textLength="145.4734" x="126.2415" y="1451.962">ConversationMessage</text><line style="stroke:#000080;stroke-width:0.5;" x1="40.5707" x2="324.8857" y1="1462.53" y2="1462.53"/><text fill="#000000" font-family="sans-serif" font-size="14" lengthAdjust="spacing" textLength="67.0177" x="45.5707" y="1481.4959">+id: String</text><text fill="#000000" font-family="sans-serif" font-size="14" lengthAdjust="spacing" textLength="153.1314" x="45.5707" y="1500.5639">+conversationId: String</text><text fill="#000000" font-family="sans-serif" font-size="14" lengthAdjust="spacing" textLength="80.5557" x="45.5707" y="1519.6318">+role: String</text><text fill="#000000" font-family="sans-serif" font-size="14" lengthAdjust="spacing" textLength="105.2936" x="45.5707" y="1538.6997">+content: String</text><text fill="#000000" font-family="sans-serif" font-size="14" lengthAdjust="spacing" textLength="177.2393" x="45.5707" y="1557.7676">+isCodeResponse: Boolean</text><text fill="#000000" font-family="sans-serif" font-size="14" lengthAdjust="spacing" textLength="126.1395" x="45.5707" y="1576.8355">+timestamp: BigInt</text><text fill="#000000" font-family="sans-serif" font-size="14" lengthAdjust="spacing" textLength="142.6174" x="45.5707" y="1595.9034">+createdAt: DateTime</text><line style="stroke:#000080;stroke-width:1;" x1="40.5707" x2="324.8857" y1="1604.0054" y2="1604.0054"/><text fill="#000000" font-family="sans-serif" font-size="14" lengthAdjust="spacing" textLength="265.117" x="45.5707" y="1622.9714">+getMessages(): ConversationMessage[]</text><text fill="#000000" font-family="sans-serif" font-size="14" lengthAdjust="spacing" textLength="252.713" x="45.5707" y="1642.0393">+addMessage(): ConversationMessage</text><text fill="#000000" font-family="sans-serif" font-size="14" lengthAdjust="spacing" textLength="274.315" x="45.5707" y="1661.1072">+updateMessage(): ConversationMessage</text><text fill="#000000" font-family="sans-serif" font-size="14" lengthAdjust="spacing" textLength="150.9334" x="45.5707" y="1680.1751">+deleteMessage(): void</text></g><!--class Account--><g class="entity" data-entity="Account" data-source-line="37" data-uid="ent0004" id="entity_Account"><rect fill="#ADD8E6" height="334.0188" rx="2.5" ry="2.5" style="stroke:#000080;stroke-width:0.5;" width="189.2393" x="48.1107" y="353.35"/><ellipse cx="111.8735" cy="369.35" fill="#ADD1B2" rx="11" ry="11" style="stroke:#181818;stroke-width:1;"/><path d="M111.9829,364.8812 Q111.061,364.8812 110.3266,365.1937 Q109.6079,365.5062 109.1079,366.1 Q108.6079,366.6781 108.3266,367.5531 Q108.061,368.4281 108.061,369.5219 Q108.061,370.9594 108.4985,372.0062 Q108.9516,373.0531 109.7954,373.6 Q110.6548,374.1469 111.9673,374.1469 Q112.7485,374.1469 113.436,374.0219 Q114.1391,373.8812 115.1391,373.5687 L115.1391,375.4437 Q114.2798,375.7719 113.5141,375.8969 Q112.7641,376.0219 111.7485,376.0219 Q109.8266,376.0219 108.5141,375.225 Q107.2173,374.4125 106.561,372.9437 Q105.9048,371.4594 105.9048,369.4906 Q105.9048,368.0687 106.2954,366.8969 Q106.7016,365.7094 107.4829,364.8344 Q108.2641,363.9594 109.4048,363.4906 Q110.5454,363.0062 112.0141,363.0062 Q112.9673,363.0062 113.8579,363.2094 Q114.7641,363.3969 115.7016,363.8656 L114.8735,365.6469 Q114.0923,365.2719 113.436,365.0844 Q112.7798,364.8812 111.9829,364.8812 Z " fill="#000000"/><text fill="#000000" font-family="sans-serif" font-size="14" lengthAdjust="spacing" textLength="53.2138" x="132.3735" y="374.782">Account</text><line style="stroke:#000080;stroke-width:0.5;" x1="49.1107" x2="236.3501" y1="385.35" y2="385.35"/><text fill="#000000" font-family="sans-serif" font-size="14" lengthAdjust="spacing" textLength="67.0177" x="54.1107" y="404.3159">+id: String</text><text fill="#000000" font-family="sans-serif" font-size="14" lengthAdjust="spacing" textLength="97.1876" x="54.1107" y="423.3839">+userId: String</text><text fill="#000000" font-family="sans-serif" font-size="14" lengthAdjust="spacing" textLength="83.4957" x="54.1107" y="442.4518">+type: String</text><text fill="#000000" font-family="sans-serif" font-size="14" lengthAdjust="spacing" textLength="110.6696" x="54.1107" y="461.5197">+provider: String</text><text fill="#000000" font-family="sans-serif" font-size="14" lengthAdjust="spacing" textLength="177.2393" x="54.1107" y="480.5876">+providerAccountId: String</text><text fill="#000000" font-family="sans-serif" font-size="14" lengthAdjust="spacing" textLength="152.1654" x="54.1107" y="499.6555">+refresh_token: String?</text><text fill="#000000" font-family="sans-serif" font-size="14" lengthAdjust="spacing" textLength="147.2374" x="54.1107" y="518.7234">+access_token: String?</text><text fill="#000000" font-family="sans-serif" font-size="14" lengthAdjust="spacing" textLength="106.9596" x="54.1107" y="537.7914">+expires_at: Int?</text><text fill="#000000" font-family="sans-serif" font-size="14" lengthAdjust="spacing" textLength="133.3355" x="54.1107" y="556.8593">+token_type: String?</text><text fill="#000000" font-family="sans-serif" font-size="14" lengthAdjust="spacing" textLength="99.2736" x="54.1107" y="575.9272">+scope: String?</text><text fill="#000000" font-family="sans-serif" font-size="14" lengthAdjust="spacing" textLength="116.8575" x="54.1107" y="594.9951">+id_token: String?</text><text fill="#000000" font-family="sans-serif" font-size="14" lengthAdjust="spacing" textLength="148.3994" x="54.1107" y="614.063">+session_state: String?</text><line style="stroke:#000080;stroke-width:1;" x1="49.1107" x2="236.3501" y1="622.165" y2="622.165"/><text fill="#000000" font-family="sans-serif" font-size="14" lengthAdjust="spacing" textLength="116.8575" x="54.1107" y="641.1309">+signin(): Account</text><text fill="#000000" font-family="sans-serif" font-size="14" lengthAdjust="spacing" textLength="101.3596" x="54.1107" y="660.1989">+signout(): void</text><text fill="#000000" font-family="sans-serif" font-size="14" lengthAdjust="spacing" textLength="144.8154" x="54.1107" y="679.2668">+getSession(): Session</text></g><!--class Session--><g class="entity" data-entity="Session" data-source-line="56" data-uid="ent0005" id="entity_Session"><rect fill="#ADD8E6" height="181.4754" rx="2.5" ry="2.5" style="stroke:#000080;stroke-width:0.5;" width="191.1853" x="272.1407" y="429.62"/><ellipse cx="338.6195" cy="445.62" fill="#ADD1B2" rx="11" ry="11" style="stroke:#181818;stroke-width:1;"/><path d="M338.7289,441.1512 Q337.807,441.1512 337.0726,441.4637 Q336.3539,441.7762 335.8539,442.37 Q335.3539,442.9481 335.0726,443.8231 Q334.807,444.6981 334.807,445.7919 Q334.807,447.2294 335.2445,448.2762 Q335.6976,449.3231 336.5414,449.87 Q337.4007,450.4169 338.7132,450.4169 Q339.4945,450.4169 340.182,450.2919 Q340.8851,450.1512 341.8851,449.8387 L341.8851,451.7137 Q341.0257,452.0419 340.2601,452.1669 Q339.5101,452.2919 338.4945,452.2919 Q336.5726,452.2919 335.2601,451.495 Q333.9632,450.6825 333.307,449.2137 Q332.6507,447.7294 332.6507,445.7606 Q332.6507,444.3387 333.0414,443.1669 Q333.4476,441.9794 334.2289,441.1044 Q335.0101,440.2294 336.1507,439.7606 Q337.2914,439.2762 338.7601,439.2762 Q339.7132,439.2762 340.6039,439.4794 Q341.5101,439.6669 342.4476,440.1356 L341.6195,441.9169 Q340.8382,441.5419 340.182,441.3544 Q339.5257,441.1512 338.7289,441.1512 Z " fill="#000000"/><text fill="#000000" font-family="sans-serif" font-size="14" lengthAdjust="spacing" textLength="49.7278" x="359.1195" y="451.052">Session</text><line style="stroke:#000080;stroke-width:0.5;" x1="273.1407" x2="462.326" y1="461.62" y2="461.62"/><text fill="#000000" font-family="sans-serif" font-size="14" lengthAdjust="spacing" textLength="67.0177" x="278.1407" y="480.5859">+id: String</text><text fill="#000000" font-family="sans-serif" font-size="14" lengthAdjust="spacing" textLength="143.8214" x="278.1407" y="499.6539">+sessionToken: String</text><text fill="#000000" font-family="sans-serif" font-size="14" lengthAdjust="spacing" textLength="97.1876" x="278.1407" y="518.7218">+userId: String</text><text fill="#000000" font-family="sans-serif" font-size="14" lengthAdjust="spacing" textLength="126.7135" x="278.1407" y="537.7897">+expires: DateTime</text><line style="stroke:#000080;stroke-width:1;" x1="273.1407" x2="462.326" y1="545.8917" y2="545.8917"/><text fill="#000000" font-family="sans-serif" font-size="14" lengthAdjust="spacing" textLength="179.1853" x="278.1407" y="564.8576">+validateSession(): Boolean</text><text fill="#000000" font-family="sans-serif" font-size="14" lengthAdjust="spacing" textLength="164.4574" x="278.1407" y="583.9255">+createSession(): Session</text><text fill="#000000" font-family="sans-serif" font-size="14" lengthAdjust="spacing" textLength="142.2954" x="278.1407" y="602.9934">+deleteSession(): void</text></g><!--class User--><g class="entity" data-entity="User" data-source-line="67" data-uid="ent0006" id="entity_User"><rect fill="#ADD8E6" height="276.815" rx="2.5" ry="2.5" style="stroke:#000080;stroke-width:0.5;" width="183.5693" x="275.9407" y="7"/><ellipse cx="348.1664" cy="23" fill="#ADD1B2" rx="11" ry="11" style="stroke:#181818;stroke-width:1;"/><path d="M348.2758,18.5313 Q347.3539,18.5313 346.6196,18.8438 Q345.9008,19.1563 345.4008,19.75 Q344.9008,20.3281 344.6196,21.2031 Q344.3539,22.0781 344.3539,23.1719 Q344.3539,24.6094 344.7914,25.6563 Q345.2446,26.7031 346.0883,27.25 Q346.9477,27.7969 348.2602,27.7969 Q349.0414,27.7969 349.7289,27.6719 Q350.4321,27.5313 351.4321,27.2188 L351.4321,29.0938 Q350.5727,29.4219 349.8071,29.5469 Q349.0571,29.6719 348.0414,29.6719 Q346.1196,29.6719 344.8071,28.875 Q343.5102,28.0625 342.8539,26.5938 Q342.1977,25.1094 342.1977,23.1406 Q342.1977,21.7188 342.5883,20.5469 Q342.9946,19.3594 343.7758,18.4844 Q344.5571,17.6094 345.6977,17.1406 Q346.8383,16.6563 348.3071,16.6563 Q349.2602,16.6563 350.1508,16.8594 Q351.0571,17.0469 351.9946,17.5156 L351.1664,19.2969 Q350.3852,18.9219 349.7289,18.7344 Q349.0727,18.5313 348.2758,18.5313 Z " fill="#000000"/><text fill="#000000" font-family="sans-serif" font-size="14" lengthAdjust="spacing" textLength="30.6179" x="368.6664" y="28.432">User</text><line style="stroke:#000080;stroke-width:0.5;" x1="276.9407" x2="458.51" y1="39" y2="39"/><text fill="#000000" font-family="sans-serif" font-size="14" lengthAdjust="spacing" textLength="67.0177" x="281.9407" y="57.9659">+id: String</text><text fill="#000000" font-family="sans-serif" font-size="14" lengthAdjust="spacing" textLength="98.3636" x="281.9407" y="77.0339">+name: String?</text><text fill="#000000" font-family="sans-serif" font-size="14" lengthAdjust="spacing" textLength="96.9356" x="281.9407" y="96.1018">+email: String?</text><text fill="#000000" font-family="sans-serif" font-size="14" lengthAdjust="spacing" textLength="171.5693" x="281.9407" y="115.1697">+emailVerified: DateTime?</text><text fill="#000000" font-family="sans-serif" font-size="14" lengthAdjust="spacing" textLength="101.9336" x="281.9407" y="134.2376">+image: String?</text><text fill="#000000" font-family="sans-serif" font-size="14" lengthAdjust="spacing" textLength="134.5955" x="281.9407" y="153.3055">+description: String?</text><text fill="#000000" font-family="sans-serif" font-size="14" lengthAdjust="spacing" textLength="142.6174" x="281.9407" y="172.3734">+createdAt: DateTime</text><text fill="#000000" font-family="sans-serif" font-size="14" lengthAdjust="spacing" textLength="148.0914" x="281.9407" y="191.4414">+updatedAt: DateTime</text><line style="stroke:#000080;stroke-width:1;" x1="276.9407" x2="458.51" y1="199.5433" y2="199.5433"/><text fill="#000000" font-family="sans-serif" font-size="14" lengthAdjust="spacing" textLength="106.5956" x="281.9407" y="218.5093">+getUser(): User</text><text fill="#000000" font-family="sans-serif" font-size="14" lengthAdjust="spacing" textLength="131.7115" x="281.9407" y="237.5772">+updateUser(): User</text><text fill="#000000" font-family="sans-serif" font-size="14" lengthAdjust="spacing" textLength="123.1855" x="281.9407" y="256.6451">+deleteUser(): void</text><text fill="#000000" font-family="sans-serif" font-size="14" lengthAdjust="spacing" textLength="160.8034" x="281.9407" y="275.713">+authenticate(): Boolean</text></g><!--class Project--><g class="entity" data-entity="Project" data-source-line="83" data-uid="ent0007" id="entity_Project"><rect fill="#ADD8E6" height="353.0867" rx="2.5" ry="2.5" style="stroke:#000080;stroke-width:0.5;" width="181.5814" x="497.9407" y="343.82"/><ellipse cx="561.4795" cy="359.82" fill="#ADD1B2" rx="11" ry="11" style="stroke:#181818;stroke-width:1;"/><path d="M561.5889,355.3512 Q560.667,355.3512 559.9326,355.6637 Q559.2139,355.9762 558.7139,356.57 Q558.2139,357.1481 557.9326,358.0231 Q557.667,358.8981 557.667,359.9919 Q557.667,361.4294 558.1045,362.4762 Q558.5576,363.5231 559.4014,364.07 Q560.2607,364.6169 561.5732,364.6169 Q562.3545,364.6169 563.042,364.4919 Q563.7451,364.3512 564.7451,364.0387 L564.7451,365.9137 Q563.8857,366.2419 563.1201,366.3669 Q562.3701,366.4919 561.3545,366.4919 Q559.4326,366.4919 558.1201,365.695 Q556.8232,364.8825 556.167,363.4137 Q555.5107,361.9294 555.5107,359.9606 Q555.5107,358.5387 555.9014,357.3669 Q556.3076,356.1794 557.0889,355.3044 Q557.8701,354.4294 559.0107,353.9606 Q560.1514,353.4762 561.6201,353.4762 Q562.5732,353.4762 563.4639,353.6794 Q564.3701,353.8669 565.3076,354.3356 L564.4795,356.1169 Q563.6982,355.7419 563.042,355.5544 Q562.3857,355.3512 561.5889,355.3512 Z " fill="#000000"/><text fill="#000000" font-family="sans-serif" font-size="14" lengthAdjust="spacing" textLength="46.0038" x="581.9795" y="365.252">Project</text><line style="stroke:#000080;stroke-width:0.5;" x1="498.9407" x2="678.5221" y1="375.82" y2="375.82"/><text fill="#000000" font-family="sans-serif" font-size="14" lengthAdjust="spacing" textLength="67.0177" x="503.9407" y="394.7859">+id: String</text><text fill="#000000" font-family="sans-serif" font-size="14" lengthAdjust="spacing" textLength="92.2876" x="503.9407" y="413.8539">+name: String</text><text fill="#000000" font-family="sans-serif" font-size="14" lengthAdjust="spacing" textLength="134.5955" x="503.9407" y="432.9218">+description: String?</text><text fill="#000000" font-family="sans-serif" font-size="14" lengthAdjust="spacing" textLength="115.4856" x="503.9407" y="451.9897">+imageUrl: String</text><text fill="#000000" font-family="sans-serif" font-size="14" lengthAdjust="spacing" textLength="119.4475" x="503.9407" y="471.0576">+isPublic: Boolean</text><text fill="#000000" font-family="sans-serif" font-size="14" lengthAdjust="spacing" textLength="97.1876" x="503.9407" y="490.1255">+userId: String</text><text fill="#000000" font-family="sans-serif" font-size="14" lengthAdjust="spacing" textLength="142.6174" x="503.9407" y="509.1934">+createdAt: DateTime</text><text fill="#000000" font-family="sans-serif" font-size="14" lengthAdjust="spacing" textLength="148.0914" x="503.9407" y="528.2614">+updatedAt: DateTime</text><line style="stroke:#000080;stroke-width:1;" x1="498.9407" x2="678.5221" y1="536.3633" y2="536.3633"/><text fill="#000000" font-family="sans-serif" font-size="14" lengthAdjust="spacing" textLength="137.3675" x="503.9407" y="555.3293">+getProject(): Project</text><text fill="#000000" font-family="sans-serif" font-size="14" lengthAdjust="spacing" textLength="162.4834" x="503.9407" y="574.3972">+updateProject(): Project</text><text fill="#000000" font-family="sans-serif" font-size="14" lengthAdjust="spacing" textLength="138.5715" x="503.9407" y="593.4651">+deleteProject(): void</text><text fill="#000000" font-family="sans-serif" font-size="14" lengthAdjust="spacing" textLength="146.7474" x="503.9407" y="612.533">+copyProject(): Project</text><text fill="#000000" font-family="sans-serif" font-size="14" lengthAdjust="spacing" textLength="164.7233" x="503.9407" y="631.6009">+likeProject(): ProjectLike</text><text fill="#000000" font-family="sans-serif" font-size="14" lengthAdjust="spacing" textLength="137.5074" x="503.9407" y="650.6689">+unlikeProject(): void</text><text fill="#000000" font-family="sans-serif" font-size="14" lengthAdjust="spacing" textLength="141.6374" x="503.9407" y="669.7368">+checkLike(): Boolean</text><text fill="#000000" font-family="sans-serif" font-size="14" lengthAdjust="spacing" textLength="169.5814" x="503.9407" y="688.8047">+downloadImages(): File[]</text></g><!--class Diagram--><g class="entity" data-entity="Diagram" data-source-line="103" data-uid="ent0008" id="entity_Diagram"><rect fill="#ADD8E6" height="314.9508" rx="2.5" ry="2.5" style="stroke:#000080;stroke-width:0.5;" width="196.5193" x="343.4707" y="756.9"/><ellipse cx="408.9695" cy="772.9" fill="#ADD1B2" rx="11" ry="11" style="stroke:#181818;stroke-width:1;"/><path d="M409.0789,768.4313 Q408.157,768.4313 407.4226,768.7438 Q406.7039,769.0563 406.2039,769.65 Q405.7039,770.2281 405.4226,771.1031 Q405.157,771.9781 405.157,773.0719 Q405.157,774.5094 405.5945,775.5563 Q406.0476,776.6031 406.8914,777.15 Q407.7507,777.6969 409.0632,777.6969 Q409.8445,777.6969 410.532,777.5719 Q411.2351,777.4313 412.2351,777.1188 L412.2351,778.9938 Q411.3757,779.3219 410.6101,779.4469 Q409.8601,779.5719 408.8445,779.5719 Q406.9226,779.5719 405.6101,778.775 Q404.3132,777.9625 403.657,776.4938 Q403.0007,775.0094 403.0007,773.0406 Q403.0007,771.6188 403.3914,770.4469 Q403.7976,769.2594 404.5789,768.3844 Q405.3601,767.5094 406.5007,767.0406 Q407.6414,766.5563 409.1101,766.5563 Q410.0632,766.5563 410.9539,766.7594 Q411.8601,766.9469 412.7976,767.4156 L411.9695,769.1969 Q411.1882,768.8219 410.532,768.6344 Q409.8757,768.4313 409.0789,768.4313 Z " fill="#000000"/><text fill="#000000" font-family="sans-serif" font-size="14" lengthAdjust="spacing" textLength="57.0218" x="429.4695" y="778.332">Diagram</text><line style="stroke:#000080;stroke-width:0.5;" x1="344.4707" x2="538.99" y1="788.9" y2="788.9"/><text fill="#000000" font-family="sans-serif" font-size="14" lengthAdjust="spacing" textLength="67.0177" x="349.4707" y="807.8659">+id: String</text><text fill="#000000" font-family="sans-serif" font-size="14" lengthAdjust="spacing" textLength="92.2876" x="349.4707" y="826.9339">+name: String</text><text fill="#000000" font-family="sans-serif" font-size="14" lengthAdjust="spacing" textLength="86.4917" x="349.4707" y="846.0018">+code: String</text><text fill="#000000" font-family="sans-serif" font-size="14" lengthAdjust="spacing" textLength="114.2956" x="349.4707" y="865.0697">+projectId: String</text><text fill="#000000" font-family="sans-serif" font-size="14" lengthAdjust="spacing" textLength="142.6174" x="349.4707" y="884.1376">+createdAt: DateTime</text><text fill="#000000" font-family="sans-serif" font-size="14" lengthAdjust="spacing" textLength="148.0914" x="349.4707" y="903.2055">+updatedAt: DateTime</text><text fill="#000000" font-family="sans-serif" font-size="14" lengthAdjust="spacing" textLength="115.4856" x="349.4707" y="922.2734">+imageUrl: String</text><line style="stroke:#000080;stroke-width:1;" x1="344.4707" x2="538.99" y1="930.3754" y2="930.3754"/><text fill="#000000" font-family="sans-serif" font-size="14" lengthAdjust="spacing" textLength="175.3214" x="349.4707" y="949.3414">+getDiagrams(): Diagram[]</text><text fill="#000000" font-family="sans-serif" font-size="14" lengthAdjust="spacing" textLength="179.0453" x="349.4707" y="968.4093">+createDiagram(): Diagram</text><text fill="#000000" font-family="sans-serif" font-size="14" lengthAdjust="spacing" textLength="159.4034" x="349.4707" y="987.4772">+getDiagram(): Diagram</text><text fill="#000000" font-family="sans-serif" font-size="14" lengthAdjust="spacing" textLength="184.5193" x="349.4707" y="1006.5451">+updateDiagram(): Diagram</text><text fill="#000000" font-family="sans-serif" font-size="14" lengthAdjust="spacing" textLength="149.5894" x="349.4707" y="1025.613">+deleteDiagram(): void</text><text fill="#000000" font-family="sans-serif" font-size="14" lengthAdjust="spacing" textLength="165.0314" x="349.4707" y="1044.6809">+generateImage(): String</text><text fill="#000000" font-family="sans-serif" font-size="14" lengthAdjust="spacing" textLength="181.2993" x="349.4707" y="1063.7489">+processAIRequest(): String</text></g><!--class ProjectComment--><g class="entity" data-entity="ProjectComment" data-source-line="121" data-uid="ent0009" id="entity_ProjectComment"><rect fill="#ADD8E6" height="276.815" rx="2.5" ry="2.5" style="stroke:#000080;stroke-width:0.5;" width="258.679" x="49.3907" y="775.97"/><ellipse cx="118.9285" cy="791.97" fill="#ADD1B2" rx="11" ry="11" style="stroke:#181818;stroke-width:1;"/><path d="M119.0378,787.5013 Q118.116,787.5013 117.3816,787.8138 Q116.6628,788.1263 116.1628,788.72 Q115.6628,789.2981 115.3816,790.1731 Q115.116,791.0481 115.116,792.1419 Q115.116,793.5794 115.5535,794.6263 Q116.0066,795.6731 116.8503,796.22 Q117.7097,796.7669 119.0222,796.7669 Q119.8035,796.7669 120.491,796.6419 Q121.1941,796.5013 122.1941,796.1888 L122.1941,798.0638 Q121.3347,798.3919 120.5691,798.5169 Q119.8191,798.6419 118.8035,798.6419 Q116.8816,798.6419 115.5691,797.845 Q114.2722,797.0325 113.616,795.5638 Q112.9597,794.0794 112.9597,792.1106 Q112.9597,790.6888 113.3503,789.5169 Q113.7566,788.3294 114.5378,787.4544 Q115.3191,786.5794 116.4597,786.1106 Q117.6003,785.6263 119.0691,785.6263 Q120.0222,785.6263 120.9128,785.8294 Q121.8191,786.0169 122.7566,786.4856 L121.9285,788.2669 Q121.1472,787.8919 120.491,787.7044 Q119.8347,787.5013 119.0378,787.5013 Z " fill="#000000"/><text fill="#000000" font-family="sans-serif" font-size="14" lengthAdjust="spacing" textLength="111.1036" x="139.4285" y="797.402">ProjectComment</text><line style="stroke:#000080;stroke-width:0.5;" x1="50.3907" x2="307.0698" y1="807.97" y2="807.97"/><text fill="#000000" font-family="sans-serif" font-size="14" lengthAdjust="spacing" textLength="67.0177" x="55.3907" y="826.9359">+id: String</text><text fill="#000000" font-family="sans-serif" font-size="14" lengthAdjust="spacing" textLength="105.2936" x="55.3907" y="846.0039">+content: String</text><text fill="#000000" font-family="sans-serif" font-size="14" lengthAdjust="spacing" textLength="114.2956" x="55.3907" y="865.0718">+projectId: String</text><text fill="#000000" font-family="sans-serif" font-size="14" lengthAdjust="spacing" textLength="97.1876" x="55.3907" y="884.1397">+userId: String</text><text fill="#000000" font-family="sans-serif" font-size="14" lengthAdjust="spacing" textLength="142.6174" x="55.3907" y="903.2076">+createdAt: DateTime</text><text fill="#000000" font-family="sans-serif" font-size="14" lengthAdjust="spacing" textLength="148.0914" x="55.3907" y="922.2755">+updatedAt: DateTime</text><line style="stroke:#000080;stroke-width:1;" x1="50.3907" x2="307.0698" y1="930.3775" y2="930.3775"/><text fill="#000000" font-family="sans-serif" font-size="14" lengthAdjust="spacing" textLength="237.4811" x="55.3907" y="949.3434">+getComments(): ProjectComment[]</text><text fill="#000000" font-family="sans-serif" font-size="14" lengthAdjust="spacing" textLength="225.0771" x="55.3907" y="968.4114">+addComment(): ProjectComment</text><text fill="#000000" font-family="sans-serif" font-size="14" lengthAdjust="spacing" textLength="246.679" x="55.3907" y="987.4793">+updateComment(): ProjectComment</text><text fill="#000000" font-family="sans-serif" font-size="14" lengthAdjust="spacing" textLength="157.6674" x="55.3907" y="1006.5472">+deleteComment(): void</text><text fill="#000000" font-family="sans-serif" font-size="14" lengthAdjust="spacing" textLength="202.9152" x="55.3907" y="1025.6151">+likeComment(): CommentLike</text><text fill="#000000" font-family="sans-serif" font-size="14" lengthAdjust="spacing" textLength="156.6034" x="55.3907" y="1044.683">+unlikeComment(): void</text></g><!--class ProjectLike--><g class="entity" data-entity="ProjectLike" data-source-line="137" data-uid="ent0010" id="entity_ProjectLike"><rect fill="#ADD8E6" height="181.4754" rx="2.5" ry="2.5" style="stroke:#000080;stroke-width:0.5;" width="175.6453" x="574.9107" y="823.64"/><ellipse cx="622.3215" cy="839.64" fill="#ADD1B2" rx="11" ry="11" style="stroke:#181818;stroke-width:1;"/><path d="M622.4309,835.1713 Q621.509,835.1713 620.7747,835.4838 Q620.0559,835.7963 619.5559,836.39 Q619.0559,836.9681 618.7747,837.8431 Q618.509,838.7181 618.509,839.8119 Q618.509,841.2494 618.9465,842.2963 Q619.3997,843.3431 620.2434,843.89 Q621.1028,844.4369 622.4153,844.4369 Q623.1965,844.4369 623.884,844.3119 Q624.5872,844.1713 625.5872,843.8588 L625.5872,845.7338 Q624.7278,846.0619 623.9622,846.1869 Q623.2122,846.3119 622.1965,846.3119 Q620.2747,846.3119 618.9622,845.515 Q617.6653,844.7025 617.009,843.2338 Q616.3528,841.7494 616.3528,839.7806 Q616.3528,838.3588 616.7434,837.1869 Q617.1497,835.9994 617.9309,835.1244 Q618.7122,834.2494 619.8528,833.7806 Q620.9934,833.2963 622.4622,833.2963 Q623.4153,833.2963 624.3059,833.4994 Q625.2122,833.6869 626.1497,834.1556 L625.3215,835.9369 Q624.5403,835.5619 623.884,835.3744 Q623.2278,835.1713 622.4309,835.1713 Z " fill="#000000"/><text fill="#000000" font-family="sans-serif" font-size="14" lengthAdjust="spacing" textLength="72.3237" x="642.8215" y="845.072">ProjectLike</text><line style="stroke:#000080;stroke-width:0.5;" x1="575.9107" x2="749.5561" y1="855.64" y2="855.64"/><text fill="#000000" font-family="sans-serif" font-size="14" lengthAdjust="spacing" textLength="67.0177" x="580.9107" y="874.6059">+id: String</text><text fill="#000000" font-family="sans-serif" font-size="14" lengthAdjust="spacing" textLength="114.2956" x="580.9107" y="893.6739">+projectId: String</text><text fill="#000000" font-family="sans-serif" font-size="14" lengthAdjust="spacing" textLength="97.1876" x="580.9107" y="912.7418">+userId: String</text><text fill="#000000" font-family="sans-serif" font-size="14" lengthAdjust="spacing" textLength="142.6174" x="580.9107" y="931.8097">+createdAt: DateTime</text><line style="stroke:#000080;stroke-width:1;" x1="575.9107" x2="749.5561" y1="939.9117" y2="939.9117"/><text fill="#000000" font-family="sans-serif" font-size="14" lengthAdjust="spacing" textLength="163.6453" x="580.9107" y="958.8776">+createLike(): ProjectLike</text><text fill="#000000" font-family="sans-serif" font-size="14" lengthAdjust="spacing" textLength="118.8875" x="580.9107" y="977.9455">+deleteLike(): void</text><text fill="#000000" font-family="sans-serif" font-size="14" lengthAdjust="spacing" textLength="141.6374" x="580.9107" y="997.0134">+checkLike(): Boolean</text></g><!--class CommentLike--><g class="entity" data-entity="CommentLike" data-source-line="148" data-uid="ent0011" id="entity_CommentLike"><rect fill="#ADD8E6" height="181.4754" rx="2.5" ry="2.5" style="stroke:#000080;stroke-width:0.5;" width="194.7413" x="540.3607" y="1160.46"/><ellipse cx="587.7715" cy="1176.46" fill="#ADD1B2" rx="11" ry="11" style="stroke:#181818;stroke-width:1;"/><path d="M587.8809,1171.9912 Q586.959,1171.9912 586.2247,1172.3037 Q585.5059,1172.6162 585.0059,1173.21 Q584.5059,1173.7881 584.2247,1174.6631 Q583.959,1175.5381 583.959,1176.6319 Q583.959,1178.0694 584.3965,1179.1162 Q584.8497,1180.1631 585.6934,1180.71 Q586.5528,1181.2569 587.8653,1181.2569 Q588.6465,1181.2569 589.334,1181.1319 Q590.0372,1180.9912 591.0372,1180.6787 L591.0372,1182.5537 Q590.1778,1182.8819 589.4122,1183.0069 Q588.6622,1183.1319 587.6465,1183.1319 Q585.7247,1183.1319 584.4122,1182.335 Q583.1153,1181.5225 582.459,1180.0537 Q581.8028,1178.5694 581.8028,1176.6006 Q581.8028,1175.1787 582.1934,1174.0069 Q582.5997,1172.8194 583.3809,1171.9444 Q584.1622,1171.0694 585.3028,1170.6006 Q586.4434,1170.1162 587.9122,1170.1162 Q588.8653,1170.1162 589.7559,1170.3194 Q590.6622,1170.5069 591.5997,1170.9756 L590.7715,1172.7569 Q589.9903,1172.3819 589.334,1172.1944 Q588.6778,1171.9912 587.8809,1171.9912 Z " fill="#000000"/><text fill="#000000" font-family="sans-serif" font-size="14" lengthAdjust="spacing" textLength="91.4196" x="608.2715" y="1181.892">CommentLike</text><line style="stroke:#000080;stroke-width:0.5;" x1="541.3607" x2="734.102" y1="1192.46" y2="1192.46"/><text fill="#000000" font-family="sans-serif" font-size="14" lengthAdjust="spacing" textLength="67.0177" x="546.3607" y="1211.4259">+id: String</text><text fill="#000000" font-family="sans-serif" font-size="14" lengthAdjust="spacing" textLength="131.1235" x="546.3607" y="1230.4939">+commentId: String</text><text fill="#000000" font-family="sans-serif" font-size="14" lengthAdjust="spacing" textLength="97.1876" x="546.3607" y="1249.5618">+userId: String</text><text fill="#000000" font-family="sans-serif" font-size="14" lengthAdjust="spacing" textLength="142.6174" x="546.3607" y="1268.6297">+createdAt: DateTime</text><line style="stroke:#000080;stroke-width:1;" x1="541.3607" x2="734.102" y1="1276.7317" y2="1276.7317"/><text fill="#000000" font-family="sans-serif" font-size="14" lengthAdjust="spacing" textLength="182.7413" x="546.3607" y="1295.6976">+createLike(): CommentLike</text><text fill="#000000" font-family="sans-serif" font-size="14" lengthAdjust="spacing" textLength="118.8875" x="546.3607" y="1314.7655">+deleteLike(): void</text><text fill="#000000" font-family="sans-serif" font-size="14" lengthAdjust="spacing" textLength="141.6374" x="546.3607" y="1333.8334">+checkLike(): Boolean</text></g><!--reverse link User to Account--><g class="link" data-entity-1="User" data-entity-2="Account" data-source-line="160" data-uid="lnk12" id="link_User_Account"><path codeLine="160" d="M321.8407,296.15 C321.8407,351.92 321.8407,391.28 321.8407,391.28 C321.8407,391.28 280.6607,391.28 237.7907,391.28" fill="none" id="User-backto-Account" style="stroke:#181818;stroke-width:1;"/><polygon fill="#181818" points="321.8407,284.15,317.8407,290.15,321.8407,296.15,325.8407,290.15,321.8407,284.15" style="stroke:#181818;stroke-width:1;"/><text fill="#000000" font-family="sans-serif" font-size="13" lengthAdjust="spacing" textLength="7.436" x="312.3056" y="305.6574">1</text><text fill="#000000" font-family="sans-serif" font-size="13" lengthAdjust="spacing" textLength="21.567" x="245.2329" y="378.5283">0..*</text></g><!--reverse link User to Session--><g class="link" data-entity-1="User" data-entity-2="Session" data-source-line="161" data-uid="lnk13" id="link_User_Session"><path codeLine="161" d="M367.7307,296.23 C367.7307,344.6 367.7307,385.62 367.7307,429.14" fill="none" id="User-backto-Session" style="stroke:#181818;stroke-width:1;"/><polygon fill="#181818" points="367.7307,284.23,363.7307,290.23,367.7307,296.23,371.7307,290.23,367.7307,284.23" style="stroke:#181818;stroke-width:1;"/><text fill="#000000" font-family="sans-serif" font-size="13" lengthAdjust="spacing" textLength="7.436" x="360.5618" y="305.7415">1</text><text fill="#000000" font-family="sans-serif" font-size="13" lengthAdjust="spacing" textLength="21.567" x="345.8845" y="417.8084">0..*</text></g><!--reverse link User to Project--><g class="link" data-entity-1="User" data-entity-2="Project" data-source-line="162" data-uid="lnk14" id="link_User_Project"><path codeLine="162" d="M413.6207,296.09 C413.6207,331.75 413.6207,348.28 413.6207,348.28 C413.6207,348.28 455.0407,348.28 497.5807,348.28" fill="none" id="User-backto-Project" style="stroke:#181818;stroke-width:1;"/><polygon fill="#181818" points="413.6207,284.09,409.6207,290.09,413.6207,296.09,417.6207,290.09,413.6207,284.09" style="stroke:#181818;stroke-width:1;"/><text fill="#000000" font-family="sans-serif" font-size="13" lengthAdjust="spacing" textLength="7.436" x="408.818" y="305.5943">1</text><text fill="#000000" font-family="sans-serif" font-size="13" lengthAdjust="spacing" textLength="21.567" x="469.1366" y="331.9413">0..*</text></g><!--reverse link User to ProjectComment--><g class="link" data-entity-1="User" data-entity-2="ProjectComment" data-source-line="163" data-uid="lnk15" id="link_User_ProjectComment"><path codeLine="163" d="M263.4707,191.28 C251.1907,191.28 254.7407,191.28 254.7407,191.28 C254.7407,191.28 254.7407,565.85 254.7407,775.81" fill="none" id="User-backto-ProjectComment" style="stroke:#181818;stroke-width:1;"/><polygon fill="#181818" points="275.4707,191.28,269.4707,187.28,263.4707,191.28,269.4707,195.28,275.4707,191.28" style="stroke:#181818;stroke-width:1;"/><text fill="#000000" font-family="sans-serif" font-size="13" lengthAdjust="spacing" textLength="7.436" x="260.5591" y="191.3012">1</text><text fill="#000000" font-family="sans-serif" font-size="13" lengthAdjust="spacing" textLength="21.567" x="237.5444" y="764.2251">0..*</text></g><!--reverse link User to ProjectLike--><g class="link" data-entity-1="User" data-entity-2="ProjectLike" data-source-line="164" data-uid="lnk16" id="link_User_ProjectLike"><path codeLine="164" d="M471.8907,191.28 C574.7807,191.28 715.0307,191.28 715.0307,191.28 C715.0307,191.28 715.0307,628.77 715.0307,823.16" fill="none" id="User-backto-ProjectLike" style="stroke:#181818;stroke-width:1;"/><polygon fill="#181818" points="459.8907,191.28,465.8907,195.28,471.8907,191.28,465.8907,187.28,459.8907,191.28" style="stroke:#181818;stroke-width:1;"/><text fill="#000000" font-family="sans-serif" font-size="13" lengthAdjust="spacing" textLength="7.436" x="467.5314" y="191.1833">1</text><text fill="#000000" font-family="sans-serif" font-size="13" lengthAdjust="spacing" textLength="21.567" x="697.5156" y="811.8284">0..*</text></g><!--reverse link User to CommentLike--><g class="link" data-entity-1="User" data-entity-2="CommentLike" data-source-line="165" data-uid="lnk17" id="link_User_CommentLike"><path codeLine="165" d="M471.9407,99.28 C590.2907,99.28 768.5507,99.28 768.5507,99.28 C768.5507,99.28 768.5507,1251.28 768.5507,1251.28 C768.5507,1251.28 754.4707,1251.28 735.5407,1251.28" fill="none" id="User-backto-CommentLike" style="stroke:#181818;stroke-width:1;"/><polygon fill="#181818" points="459.9407,99.28,465.9407,103.28,471.9407,99.28,465.9407,95.28,459.9407,99.28" style="stroke:#181818;stroke-width:1;"/><text fill="#000000" font-family="sans-serif" font-size="13" lengthAdjust="spacing" textLength="7.436" x="467.5854" y="91.852">1</text><text fill="#000000" font-family="sans-serif" font-size="13" lengthAdjust="spacing" textLength="21.567" x="743.1762" y="1247.61">0..*</text></g><!--reverse link User to DiagramConversation--><g class="link" data-entity-1="User" data-entity-2="DiagramConversation" data-source-line="166" data-uid="lnk18" id="link_User_DiagramConversation"><path codeLine="166" d="M263.6007,99.28 C165.7407,99.28 36.9907,99.28 36.9907,99.28 C36.9907,99.28 36.9907,836.59 36.9907,1131.45" fill="none" id="User-backto-DiagramConversation" style="stroke:#181818;stroke-width:1;"/><polygon fill="#181818" points="275.6007,99.28,269.6007,95.28,263.6007,99.28,269.6007,103.28,275.6007,99.28" style="stroke:#181818;stroke-width:1;"/><text fill="#000000" font-family="sans-serif" font-size="13" lengthAdjust="spacing" textLength="7.436" x="260.4017" y="91.5128">1</text><text fill="#000000" font-family="sans-serif" font-size="13" lengthAdjust="spacing" textLength="21.567" x="6" y="1120.1543">0..*</text></g><!--reverse link Project to Diagram--><g class="link" data-entity-1="Project" data-entity-2="Diagram" data-source-line="168" data-uid="lnk19" id="link_Project_Diagram"><path codeLine="168" d="M518.9607,709.2 C518.9607,728.94 518.9607,736.96 518.9607,756.44" fill="none" id="Project-backto-Diagram" style="stroke:#181818;stroke-width:1;"/><polygon fill="#181818" points="518.9607,697.2,514.9607,703.2,518.9607,709.2,522.9607,703.2,518.9607,697.2" style="stroke:#181818;stroke-width:1;"/><text fill="#000000" font-family="sans-serif" font-size="13" lengthAdjust="spacing" textLength="7.436" x="508.8788" y="718.9308">1</text><text fill="#000000" font-family="sans-serif" font-size="13" lengthAdjust="spacing" textLength="21.567" x="501.2067" y="745.2924">0..*</text></g><!--reverse link Project to ProjectComment--><g class="link" data-entity-1="Project" data-entity-2="ProjectComment" data-source-line="169" data-uid="lnk20" id="link_Project_ProjectComment"><path codeLine="169" d="M485.5107,692.28 C397.6907,692.28 290.1007,692.28 290.1007,692.28 C290.1007,692.28 290.1007,730.72 290.1007,775.61" fill="none" id="Project-backto-ProjectComment" style="stroke:#181818;stroke-width:1;"/><polygon fill="#181818" points="497.5107,692.28,491.5107,688.28,485.5107,692.28,491.5107,696.28,497.5107,692.28" style="stroke:#181818;stroke-width:1;"/><text fill="#000000" font-family="sans-serif" font-size="13" lengthAdjust="spacing" textLength="7.436" x="482.3894" y="703.251">1</text><text fill="#000000" font-family="sans-serif" font-size="13" lengthAdjust="spacing" textLength="21.567" x="274.9487" y="764.0135">0..*</text></g><!--reverse link Project to ProjectLike--><g class="link" data-entity-1="Project" data-entity-2="ProjectLike" data-source-line="170" data-uid="lnk21" id="link_Project_ProjectLike"><path codeLine="170" d="M627.2107,709.2 C627.2107,752.78 627.2107,785.68 627.2107,823.27" fill="none" id="Project-backto-ProjectLike" style="stroke:#181818;stroke-width:1;"/><polygon fill="#181818" points="627.2107,697.2,623.2107,703.2,627.2107,709.2,631.2107,703.2,627.2107,697.2" style="stroke:#181818;stroke-width:1;"/><text fill="#000000" font-family="sans-serif" font-size="13" lengthAdjust="spacing" textLength="7.436" x="621.6956" y="718.9308">1</text><text fill="#000000" font-family="sans-serif" font-size="13" lengthAdjust="spacing" textLength="21.567" x="602.423" y="811.9475">0..*</text></g><!--reverse link DiagramConversation to ConversationMessage--><g class="link" data-entity-1="DiagramConversation" data-entity-2="ConversationMessage" data-source-line="172" data-uid="lnk22" id="link_DiagramConversation_ConversationMessage"><path codeLine="172" d="M182.7307,1382.8 C182.7307,1402.26 182.7307,1410.49 182.7307,1430.17" fill="none" id="DiagramConversation-backto-ConversationMessage" style="stroke:#181818;stroke-width:1;"/><polygon fill="#181818" points="182.7307,1370.8,178.7307,1376.8,182.7307,1382.8,186.7307,1376.8,182.7307,1370.8" style="stroke:#181818;stroke-width:1;"/><text fill="#000000" font-family="sans-serif" font-size="13" lengthAdjust="spacing" textLength="7.436" x="175.531" y="1392.5253">1</text><text fill="#000000" font-family="sans-serif" font-size="13" lengthAdjust="spacing" textLength="21.567" x="161.1083" y="1418.6954">0..*</text></g><!--reverse link Diagram to DiagramConversation--><g class="link" data-entity-1="Diagram" data-entity-2="DiagramConversation" data-source-line="173" data-uid="lnk23" id="link_Diagram_DiagramConversation"><path codeLine="173" d="M331.0307,1062.28 C319.5407,1062.28 323.8307,1062.28 323.8307,1062.28 C323.8307,1062.28 323.8307,1094.06 323.8307,1131.55" fill="none" id="Diagram-backto-DiagramConversation" style="stroke:#181818;stroke-width:1;"/><polygon fill="#181818" points="343.0307,1062.28,337.0307,1058.28,331.0307,1062.28,337.0307,1066.28,343.0307,1062.28" style="stroke:#181818;stroke-width:1;"/><text fill="#000000" font-family="sans-serif" font-size="13" lengthAdjust="spacing" textLength="7.436" x="327.9041" y="1070.3139">1</text><text fill="#000000" font-family="sans-serif" font-size="13" lengthAdjust="spacing" textLength="21.84" x="311.6339" y="1119.8614">0..1</text></g><!--reverse link ProjectComment to CommentLike--><g class="link" data-entity-1="ProjectComment" data-entity-2="CommentLike" data-source-line="175" data-uid="lnk24" id="link_ProjectComment_CommentLike"><path codeLine="175" d="M178.7307,1064.91 C178.7307,1093.07 178.7307,1102.28 178.7307,1102.28 C178.7307,1102.28 557.6307,1102.28 557.6307,1102.28 C557.6307,1102.28 557.6307,1129.28 557.6307,1160.28" fill="none" id="ProjectComment-backto-CommentLike" style="stroke:#181818;stroke-width:1;"/><polygon fill="#181818" points="178.7307,1052.91,174.7307,1058.91,178.7307,1064.91,182.7307,1058.91,178.7307,1052.91" style="stroke:#181818;stroke-width:1;"/><text fill="#000000" font-family="sans-serif" font-size="13" lengthAdjust="spacing" textLength="7.436" x="171.5513" y="1074.8672">1</text><text fill="#000000" font-family="sans-serif" font-size="13" lengthAdjust="spacing" textLength="21.567" x="528.8691" y="1148.6636">0..*</text></g><!--SRC=[jLTDJzmm4BtdLqHxQKkr2AIUk5IxYv1MeXNYevUgMXbxIDnDxDHsjgKL_xrEOWV7Ti8YW0lHl3Vsp9iPsoktb5L8e3B51P9oePIWjxM2DURiYlw5z2YHGyeIuMqcUCt8YXTSfESqozMog24WSa50TAIlQ7VlusUSgGvT5dhD6Dn6SFp9WGhAGDrNa7AXSfuaBJKzfIZJw8gp7GY95EKi_PUa-kzZIib9UgMpOfana8wyzksr114O9KYfLmliM01IG1Rg93tL7zUq1BjCHQB8V6u86IWtqFSVJcBn3_RPdz_jlZ-VG04XVySfIHwikYxwHUk1CXXN5plaG3N12mZv2fZoh5IkE85Ba1LdKhiikVP4DcYbDPKAbPK6QBPcwecYkDAR16IJPYInxpyC5H5YJ2FCWU1xKJkj7UfGvWN6UghKkBJH1cs6mJDLWk-e7hqHizadB0xS2P3vHl4jC8jzjd9WhEEEO_2dejfpWxJkkXZMt78tRdmMaPY7HahYgvi9tEY2Ay-fhwka6QDjvvha73klLQzrtmLNtQ8DO3uVws0CutKm4LsxqKwLoEWprfGxLD2cXvoOXktUjNKaPBUj77ZOLZSwfF5S62g3Ia29Q14rVWD1xoYGnrJwwfMwftqV0X8BMZMJu4ClEp-Rd9fCc_y3jmZGoMC1fmrGhN9zyb2i_LpHU-Kk1Fy9MEqdtjCfjnBTY28uwYxgsu9Yl-hHLdgPR2QX9bdpEN0UXJi97TXHKO_o_QXZGRUHLS-rrMxCF8gxSWvust33YI3yDoiu8klI7kLdj6ZExWVlHV2isc5zvOHdPXFPAzHXfFvkUKpCqhcn- -kesz1O7KBW7M9THADmLrm77foK38HsRdLkJnvFdEPIMAmluLUjBsI7uC_GYfSbJDrjyMV0cFnlC1icGkdqgJ6vJm9Z2adUyskQPHzTFSkHl9a71p6VmSZuphxWZSEusg-YQwzUHx2J6Wvvbwx5dvfmvzdPfpxLDotfJJ89jNzs9k_IIoZQfw3CQINJMoI1fFfnSI6eB95-2UNwOatQEtfsF4iFvlDqTdHuU33hNp8np3u0OfWzWISmsuqJb3Rf6EwA4iDZFpKIUvF6kMEm5-qqgmqeYVqG3188t-Vsjd2fnzEvs1DjGfx_]--></g></svg>