<?xml version="1.0" encoding="UTF-8" standalone="no"?><svg xmlns="http://www.w3.org/2000/svg" xmlns:xlink="http://www.w3.org/1999/xlink" contentScriptType="application/ecmascript" contentStyleType="text/css" height="840px" preserveAspectRatio="none" style="width:1063px;height:840px;" version="1.1" viewBox="0 0 1063 840" width="1063px" zoomAndPan="magnify"><defs><filter height="300%" id="fpo1sc8g4377c" width="300%" x="-1" y="-1"><feGaussianBlur result="blurOut" stdDeviation="2.0"/><feColorMatrix in="blurOut" result="blurOut2" type="matrix" values="0 0 0 0 0 0 0 0 0 0 0 0 0 0 0 0 0 0 .4 0"/><feOffset dx="4.0" dy="4.0" in="blurOut2" result="blurOut3"/><feBlend in="SourceGraphic" in2="blurOut3" mode="normal"/></filter></defs><g><!--MD5=[db6d18d8099558415abc41d00477ab92]
class Admin--><rect fill="#ADD8E6" filter="url(#fpo1sc8g4377c)" height="137.8913" id="Admin" style="stroke: #000080; stroke-width: 1.5;" width="133" x="6" y="15.5"/><ellipse cx="46.65" cy="31.5" fill="#ADD1B2" rx="11" ry="11" style="stroke: #000080; stroke-width: 1.0;"/><path d="M49.6188,37.1406 Q49.0406,37.4375 48.4,37.5781 Q47.7594,37.7344 47.0563,37.7344 Q44.5563,37.7344 43.2281,36.0938 Q41.9156,34.4375 41.9156,31.3125 Q41.9156,28.1875 43.2281,26.5313 Q44.5563,24.875 47.0563,24.875 Q47.7594,24.875 48.4,25.0313 Q49.0563,25.1875 49.6188,25.4844 L49.6188,28.2031 Q48.9938,27.625 48.4,27.3594 Q47.8063,27.0781 47.1813,27.0781 Q45.8375,27.0781 45.15,28.1563 Q44.4625,29.2188 44.4625,31.3125 Q44.4625,33.4063 45.15,34.4844 Q45.8375,35.5469 47.1813,35.5469 Q47.8063,35.5469 48.4,35.2813 Q48.9938,35 49.6188,34.4219 L49.6188,37.1406 Z "/><text fill="#000000" font-family="sans-serif" font-size="14" lengthAdjust="spacingAndGlyphs" textLength="44" x="66.35" y="36.932">Admin</text><line style="stroke: #000080; stroke-width: 1.5;" x1="7" x2="138" y1="47.5" y2="47.5"/><text fill="#000000" font-family="sans-serif" font-size="11" lengthAdjust="spacingAndGlyphs" textLength="54" x="12" y="63.2589">+id: String</text><text fill="#000000" font-family="sans-serif" font-size="11" lengthAdjust="spacingAndGlyphs" textLength="96" x="12" y="78.2408">+username: String</text><text fill="#000000" font-family="sans-serif" font-size="11" lengthAdjust="spacingAndGlyphs" textLength="72" x="12" y="93.2227">+email: String</text><text fill="#000000" font-family="sans-serif" font-size="11" lengthAdjust="spacingAndGlyphs" textLength="121" x="12" y="108.2046">+passwordHash: String</text><text fill="#000000" font-family="sans-serif" font-size="11" lengthAdjust="spacingAndGlyphs" textLength="111" x="12" y="123.1865">+createdAt: DateTime</text><text fill="#000000" font-family="sans-serif" font-size="11" lengthAdjust="spacingAndGlyphs" textLength="116" x="12" y="138.1684">+updatedAt: DateTime</text><line style="stroke: #000080; stroke-width: 1.5;" x1="7" x2="138" y1="145.3913" y2="145.3913"/><!--MD5=[08c20d1243006db08cab072c39bb7f58]
class AIModel--><rect fill="#ADD8E6" filter="url(#fpo1sc8g4377c)" height="122.9094" id="AIModel" style="stroke: #000080; stroke-width: 1.5;" width="128" x="174.5" y="23"/><ellipse cx="207.5" cy="39" fill="#ADD1B2" rx="11" ry="11" style="stroke: #000080; stroke-width: 1.0;"/><path d="M210.4688,44.6406 Q209.8906,44.9375 209.25,45.0781 Q208.6094,45.2344 207.9063,45.2344 Q205.4063,45.2344 204.0781,43.5938 Q202.7656,41.9375 202.7656,38.8125 Q202.7656,35.6875 204.0781,34.0313 Q205.4063,32.375 207.9063,32.375 Q208.6094,32.375 209.25,32.5313 Q209.9063,32.6875 210.4688,32.9844 L210.4688,35.7031 Q209.8438,35.125 209.25,34.8594 Q208.6563,34.5781 208.0313,34.5781 Q206.6875,34.5781 206,35.6563 Q205.3125,36.7188 205.3125,38.8125 Q205.3125,40.9063 206,41.9844 Q206.6875,43.0469 208.0313,43.0469 Q208.6563,43.0469 209.25,42.7813 Q209.8438,42.5 210.4688,41.9219 L210.4688,44.6406 Z "/><text fill="#000000" font-family="sans-serif" font-size="14" lengthAdjust="spacingAndGlyphs" textLength="56" x="225.5" y="44.432">AIModel</text><line style="stroke: #000080; stroke-width: 1.5;" x1="175.5" x2="301.5" y1="55" y2="55"/><text fill="#000000" font-family="sans-serif" font-size="11" lengthAdjust="spacingAndGlyphs" textLength="54" x="180.5" y="70.7589">+id: String</text><text fill="#000000" font-family="sans-serif" font-size="11" lengthAdjust="spacingAndGlyphs" textLength="73" x="180.5" y="85.7408">+name: String</text><text fill="#000000" font-family="sans-serif" font-size="11" lengthAdjust="spacingAndGlyphs" textLength="108" x="180.5" y="100.7227">+description: String?</text><text fill="#000000" font-family="sans-serif" font-size="11" lengthAdjust="spacingAndGlyphs" textLength="111" x="180.5" y="115.7046">+createdAt: DateTime</text><text fill="#000000" font-family="sans-serif" font-size="11" lengthAdjust="spacingAndGlyphs" textLength="116" x="180.5" y="130.6865">+updatedAt: DateTime</text><line style="stroke: #000080; stroke-width: 1.5;" x1="175.5" x2="301.5" y1="137.9094" y2="137.9094"/><!--MD5=[37e433d9af03e832cbf19da0da484929]
class Conversation--><rect fill="#ADD8E6" filter="url(#fpo1sc8g4377c)" height="137.8913" id="Conversation" style="stroke: #000080; stroke-width: 1.5;" width="128" x="174.5" y="266"/><ellipse cx="193.1" cy="282" fill="#ADD1B2" rx="11" ry="11" style="stroke: #000080; stroke-width: 1.0;"/><path d="M196.0688,287.6406 Q195.4906,287.9375 194.85,288.0781 Q194.2094,288.2344 193.5063,288.2344 Q191.0063,288.2344 189.6781,286.5938 Q188.3656,284.9375 188.3656,281.8125 Q188.3656,278.6875 189.6781,277.0313 Q191.0063,275.375 193.5063,275.375 Q194.2094,275.375 194.85,275.5313 Q195.5063,275.6875 196.0688,275.9844 L196.0688,278.7031 Q195.4438,278.125 194.85,277.8594 Q194.2563,277.5781 193.6313,277.5781 Q192.2875,277.5781 191.6,278.6563 Q190.9125,279.7188 190.9125,281.8125 Q190.9125,283.9063 191.6,284.9844 Q192.2875,286.0469 193.6313,286.0469 Q194.2563,286.0469 194.85,285.7813 Q195.4438,285.5 196.0688,284.9219 L196.0688,287.6406 Z "/><text fill="#000000" font-family="sans-serif" font-size="14" lengthAdjust="spacingAndGlyphs" textLength="88" x="207.9" y="287.432">Conversation</text><line style="stroke: #000080; stroke-width: 1.5;" x1="175.5" x2="301.5" y1="298" y2="298"/><text fill="#000000" font-family="sans-serif" font-size="11" lengthAdjust="spacingAndGlyphs" textLength="54" x="180.5" y="313.7589">+id: String</text><text fill="#000000" font-family="sans-serif" font-size="11" lengthAdjust="spacingAndGlyphs" textLength="78" x="180.5" y="328.7408">+userId: String</text><text fill="#000000" font-family="sans-serif" font-size="11" lengthAdjust="spacingAndGlyphs" textLength="97" x="180.5" y="343.7227">+aiModelId: String</text><text fill="#000000" font-family="sans-serif" font-size="11" lengthAdjust="spacingAndGlyphs" textLength="69" x="180.5" y="358.7046">+title: String?</text><text fill="#000000" font-family="sans-serif" font-size="11" lengthAdjust="spacingAndGlyphs" textLength="111" x="180.5" y="373.6865">+createdAt: DateTime</text><text fill="#000000" font-family="sans-serif" font-size="11" lengthAdjust="spacingAndGlyphs" textLength="116" x="180.5" y="388.6684">+updatedAt: DateTime</text><line style="stroke: #000080; stroke-width: 1.5;" x1="175.5" x2="301.5" y1="395.8913" y2="395.8913"/><!--MD5=[bea5b0d46523efab5ea1c1d339f396f0]
class Message--><rect fill="#ADD8E6" filter="url(#fpo1sc8g4377c)" height="122.9094" id="Message" style="stroke: #000080; stroke-width: 1.5;" width="135" x="171" y="524"/><ellipse cx="205.35" cy="540" fill="#ADD1B2" rx="11" ry="11" style="stroke: #000080; stroke-width: 1.0;"/><path d="M208.3188,545.6406 Q207.7406,545.9375 207.1,546.0781 Q206.4594,546.2344 205.7563,546.2344 Q203.2563,546.2344 201.9281,544.5938 Q200.6156,542.9375 200.6156,539.8125 Q200.6156,536.6875 201.9281,535.0313 Q203.2563,533.375 205.7563,533.375 Q206.4594,533.375 207.1,533.5313 Q207.7563,533.6875 208.3188,533.9844 L208.3188,536.7031 Q207.6938,536.125 207.1,535.8594 Q206.5063,535.5781 205.8813,535.5781 Q204.5375,535.5781 203.85,536.6563 Q203.1625,537.7188 203.1625,539.8125 Q203.1625,541.9063 203.85,542.9844 Q204.5375,544.0469 205.8813,544.0469 Q206.5063,544.0469 207.1,543.7813 Q207.6938,543.5 208.3188,542.9219 L208.3188,545.6406 Z "/><text fill="#000000" font-family="sans-serif" font-size="14" lengthAdjust="spacingAndGlyphs" textLength="60" x="223.65" y="545.432">Message</text><line style="stroke: #000080; stroke-width: 1.5;" x1="172" x2="305" y1="556" y2="556"/><text fill="#000000" font-family="sans-serif" font-size="11" lengthAdjust="spacingAndGlyphs" textLength="54" x="177" y="571.7589">+id: String</text><text fill="#000000" font-family="sans-serif" font-size="11" lengthAdjust="spacingAndGlyphs" textLength="123" x="177" y="586.7408">+conversationId: String</text><text fill="#000000" font-family="sans-serif" font-size="11" lengthAdjust="spacingAndGlyphs" textLength="80" x="177" y="601.7227">+sender: String</text><text fill="#000000" font-family="sans-serif" font-size="11" lengthAdjust="spacingAndGlyphs" textLength="84" x="177" y="616.7046">+content: String</text><text fill="#000000" font-family="sans-serif" font-size="11" lengthAdjust="spacingAndGlyphs" textLength="111" x="177" y="631.6865">+createdAt: DateTime</text><line style="stroke: #000080; stroke-width: 1.5;" x1="172" x2="305" y1="638.9094" y2="638.9094"/><!--MD5=[f9a29335b499db729be669fd1bd54958]
class Account--><rect fill="#ADD8E6" filter="url(#fpo1sc8g4377c)" height="227.7827" id="Account" style="stroke: #000080; stroke-width: 1.5;" width="155" x="897" y="221"/><ellipse cx="943.25" cy="237" fill="#ADD1B2" rx="11" ry="11" style="stroke: #000080; stroke-width: 1.0;"/><path d="M946.2188,242.6406 Q945.6406,242.9375 945,243.0781 Q944.3594,243.2344 943.6563,243.2344 Q941.1563,243.2344 939.8281,241.5938 Q938.5156,239.9375 938.5156,236.8125 Q938.5156,233.6875 939.8281,232.0313 Q941.1563,230.375 943.6563,230.375 Q944.3594,230.375 945,230.5313 Q945.6563,230.6875 946.2188,230.9844 L946.2188,233.7031 Q945.5938,233.125 945,232.8594 Q944.4063,232.5781 943.7813,232.5781 Q942.4375,232.5781 941.75,233.6563 Q941.0625,234.7188 941.0625,236.8125 Q941.0625,238.9063 941.75,239.9844 Q942.4375,241.0469 943.7813,241.0469 Q944.4063,241.0469 945,240.7813 Q945.5938,240.5 946.2188,239.9219 L946.2188,242.6406 Z "/><text fill="#000000" font-family="sans-serif" font-size="14" lengthAdjust="spacingAndGlyphs" textLength="54" x="963.75" y="242.432">Account</text><line style="stroke: #000080; stroke-width: 1.5;" x1="898" x2="1051" y1="253" y2="253"/><text fill="#000000" font-family="sans-serif" font-size="11" lengthAdjust="spacingAndGlyphs" textLength="54" x="903" y="268.7589">+id: String</text><text fill="#000000" font-family="sans-serif" font-size="11" lengthAdjust="spacingAndGlyphs" textLength="78" x="903" y="283.7408">+userId: String</text><text fill="#000000" font-family="sans-serif" font-size="11" lengthAdjust="spacingAndGlyphs" textLength="67" x="903" y="298.7227">+type: String</text><text fill="#000000" font-family="sans-serif" font-size="11" lengthAdjust="spacingAndGlyphs" textLength="90" x="903" y="313.7046">+provider: String</text><text fill="#000000" font-family="sans-serif" font-size="11" lengthAdjust="spacingAndGlyphs" textLength="143" x="903" y="328.6865">+providerAccountId: String</text><text fill="#000000" font-family="sans-serif" font-size="11" lengthAdjust="spacingAndGlyphs" textLength="122" x="903" y="343.6684">+refresh_token: String?</text><text fill="#000000" font-family="sans-serif" font-size="11" lengthAdjust="spacingAndGlyphs" textLength="116" x="903" y="358.6502">+access_token: String?</text><text fill="#000000" font-family="sans-serif" font-size="11" lengthAdjust="spacingAndGlyphs" textLength="85" x="903" y="373.6321">+expires_at: Int?</text><text fill="#000000" font-family="sans-serif" font-size="11" lengthAdjust="spacingAndGlyphs" textLength="107" x="903" y="388.614">+token_type: String?</text><text fill="#000000" font-family="sans-serif" font-size="11" lengthAdjust="spacingAndGlyphs" textLength="79" x="903" y="403.5959">+scope: String?</text><text fill="#000000" font-family="sans-serif" font-size="11" lengthAdjust="spacingAndGlyphs" textLength="94" x="903" y="418.5778">+id_token: String?</text><text fill="#000000" font-family="sans-serif" font-size="11" lengthAdjust="spacingAndGlyphs" textLength="117" x="903" y="433.5597">+session_state: String?</text><line style="stroke: #000080; stroke-width: 1.5;" x1="898" x2="1051" y1="440.7827" y2="440.7827"/><!--MD5=[2ca1536628238a7dc78c5d90808014f9]
class Session--><rect fill="#ADD8E6" filter="url(#fpo1sc8g4377c)" height="107.9276" id="Session" style="stroke: #000080; stroke-width: 1.5;" width="126" x="337.5" y="281"/><ellipse cx="371.85" cy="297" fill="#ADD1B2" rx="11" ry="11" style="stroke: #000080; stroke-width: 1.0;"/><path d="M374.8188,302.6406 Q374.2406,302.9375 373.6,303.0781 Q372.9594,303.2344 372.2563,303.2344 Q369.7563,303.2344 368.4281,301.5938 Q367.1156,299.9375 367.1156,296.8125 Q367.1156,293.6875 368.4281,292.0313 Q369.7563,290.375 372.2563,290.375 Q372.9594,290.375 373.6,290.5313 Q374.2563,290.6875 374.8188,290.9844 L374.8188,293.7031 Q374.1938,293.125 373.6,292.8594 Q373.0063,292.5781 372.3813,292.5781 Q371.0375,292.5781 370.35,293.6563 Q369.6625,294.7188 369.6625,296.8125 Q369.6625,298.9063 370.35,299.9844 Q371.0375,301.0469 372.3813,301.0469 Q373.0063,301.0469 373.6,300.7813 Q374.1938,300.5 374.8188,299.9219 L374.8188,302.6406 Z "/><text fill="#000000" font-family="sans-serif" font-size="14" lengthAdjust="spacingAndGlyphs" textLength="51" x="390.15" y="302.432">Session</text><line style="stroke: #000080; stroke-width: 1.5;" x1="338.5" x2="462.5" y1="313" y2="313"/><text fill="#000000" font-family="sans-serif" font-size="11" lengthAdjust="spacingAndGlyphs" textLength="54" x="343.5" y="328.7589">+id: String</text><text fill="#000000" font-family="sans-serif" font-size="11" lengthAdjust="spacingAndGlyphs" textLength="114" x="343.5" y="343.7408">+sessionToken: String</text><text fill="#000000" font-family="sans-serif" font-size="11" lengthAdjust="spacingAndGlyphs" textLength="78" x="343.5" y="358.7227">+userId: String</text><text fill="#000000" font-family="sans-serif" font-size="11" lengthAdjust="spacingAndGlyphs" textLength="99" x="343.5" y="373.7046">+expires: DateTime</text><line style="stroke: #000080; stroke-width: 1.5;" x1="338.5" x2="462.5" y1="380.9276" y2="380.9276"/><!--MD5=[3fd616f346a44cd59a91eb10b19e157c]
class User--><rect fill="#ADD8E6" filter="url(#fpo1sc8g4377c)" height="152.8732" id="User" style="stroke: #000080; stroke-width: 1.5;" width="147" x="536" y="8"/><ellipse cx="589.75" cy="24" fill="#ADD1B2" rx="11" ry="11" style="stroke: #000080; stroke-width: 1.0;"/><path d="M592.7188,29.6406 Q592.1406,29.9375 591.5,30.0781 Q590.8594,30.2344 590.1563,30.2344 Q587.6563,30.2344 586.3281,28.5938 Q585.0156,26.9375 585.0156,23.8125 Q585.0156,20.6875 586.3281,19.0313 Q587.6563,17.375 590.1563,17.375 Q590.8594,17.375 591.5,17.5313 Q592.1563,17.6875 592.7188,17.9844 L592.7188,20.7031 Q592.0938,20.125 591.5,19.8594 Q590.9063,19.5781 590.2813,19.5781 Q588.9375,19.5781 588.25,20.6563 Q587.5625,21.7188 587.5625,23.8125 Q587.5625,25.9063 588.25,26.9844 Q588.9375,28.0469 590.2813,28.0469 Q590.9063,28.0469 591.5,27.7813 Q592.0938,27.5 592.7188,26.9219 L592.7188,29.6406 Z "/><text fill="#000000" font-family="sans-serif" font-size="14" lengthAdjust="spacingAndGlyphs" textLength="31" x="610.25" y="29.432">User</text><line style="stroke: #000080; stroke-width: 1.5;" x1="537" x2="682" y1="40" y2="40"/><text fill="#000000" font-family="sans-serif" font-size="11" lengthAdjust="spacingAndGlyphs" textLength="54" x="542" y="55.7589">+id: String</text><text fill="#000000" font-family="sans-serif" font-size="11" lengthAdjust="spacingAndGlyphs" textLength="78" x="542" y="70.7408">+name: String?</text><text fill="#000000" font-family="sans-serif" font-size="11" lengthAdjust="spacingAndGlyphs" textLength="77" x="542" y="85.7227">+email: String?</text><text fill="#000000" font-family="sans-serif" font-size="11" lengthAdjust="spacingAndGlyphs" textLength="135" x="542" y="100.7046">+emailVerified: DateTime?</text><text fill="#000000" font-family="sans-serif" font-size="11" lengthAdjust="spacingAndGlyphs" textLength="81" x="542" y="115.6865">+image: String?</text><text fill="#000000" font-family="sans-serif" font-size="11" lengthAdjust="spacingAndGlyphs" textLength="111" x="542" y="130.6684">+createdAt: DateTime</text><text fill="#000000" font-family="sans-serif" font-size="11" lengthAdjust="spacingAndGlyphs" textLength="116" x="542" y="145.6502">+updatedAt: DateTime</text><line style="stroke: #000080; stroke-width: 1.5;" x1="537" x2="682" y1="152.8732" y2="152.8732"/><!--MD5=[79d378210367c0c6ec62ef762ddfbd1b]
class Project--><rect fill="#ADD8E6" filter="url(#fpo1sc8g4377c)" height="167.8551" id="Project" style="stroke: #000080; stroke-width: 1.5;" width="128" x="662.5" y="251"/><ellipse cx="700" cy="267" fill="#ADD1B2" rx="11" ry="11" style="stroke: #000080; stroke-width: 1.0;"/><path d="M702.9688,272.6406 Q702.3906,272.9375 701.75,273.0781 Q701.1094,273.2344 700.4063,273.2344 Q697.9063,273.2344 696.5781,271.5938 Q695.2656,269.9375 695.2656,266.8125 Q695.2656,263.6875 696.5781,262.0313 Q697.9063,260.375 700.4063,260.375 Q701.1094,260.375 701.75,260.5313 Q702.4063,260.6875 702.9688,260.9844 L702.9688,263.7031 Q702.3438,263.125 701.75,262.8594 Q701.1563,262.5781 700.5313,262.5781 Q699.1875,262.5781 698.5,263.6563 Q697.8125,264.7188 697.8125,266.8125 Q697.8125,268.9063 698.5,269.9844 Q699.1875,271.0469 700.5313,271.0469 Q701.1563,271.0469 701.75,270.7813 Q702.3438,270.5 702.9688,269.9219 L702.9688,272.6406 Z "/><text fill="#000000" font-family="sans-serif" font-size="14" lengthAdjust="spacingAndGlyphs" textLength="46" x="719" y="272.432">Project</text><line style="stroke: #000080; stroke-width: 1.5;" x1="663.5" x2="789.5" y1="283" y2="283"/><text fill="#000000" font-family="sans-serif" font-size="11" lengthAdjust="spacingAndGlyphs" textLength="54" x="668.5" y="298.7589">+id: String</text><text fill="#000000" font-family="sans-serif" font-size="11" lengthAdjust="spacingAndGlyphs" textLength="73" x="668.5" y="313.7408">+name: String</text><text fill="#000000" font-family="sans-serif" font-size="11" lengthAdjust="spacingAndGlyphs" textLength="108" x="668.5" y="328.7227">+description: String?</text><text fill="#000000" font-family="sans-serif" font-size="11" lengthAdjust="spacingAndGlyphs" textLength="92" x="668.5" y="343.7046">+imageUrl: String</text><text fill="#000000" font-family="sans-serif" font-size="11" lengthAdjust="spacingAndGlyphs" textLength="95" x="668.5" y="358.6865">+isPublic: Boolean</text><text fill="#000000" font-family="sans-serif" font-size="11" lengthAdjust="spacingAndGlyphs" textLength="78" x="668.5" y="373.6684">+userId: String</text><text fill="#000000" font-family="sans-serif" font-size="11" lengthAdjust="spacingAndGlyphs" textLength="111" x="668.5" y="388.6502">+createdAt: DateTime</text><text fill="#000000" font-family="sans-serif" font-size="11" lengthAdjust="spacingAndGlyphs" textLength="116" x="668.5" y="403.6321">+updatedAt: DateTime</text><line style="stroke: #000080; stroke-width: 1.5;" x1="663.5" x2="789.5" y1="410.8551" y2="410.8551"/><!--MD5=[3aa24d568b15d87f2bab775901974235]
class Diagram--><rect fill="#ADD8E6" filter="url(#fpo1sc8g4377c)" height="152.8732" id="Diagram" style="stroke: #000080; stroke-width: 1.5;" width="128" x="728.5" y="509"/><ellipse cx="760.6" cy="525" fill="#ADD1B2" rx="11" ry="11" style="stroke: #000080; stroke-width: 1.0;"/><path d="M763.5688,530.6406 Q762.9906,530.9375 762.35,531.0781 Q761.7094,531.2344 761.0063,531.2344 Q758.5063,531.2344 757.1781,529.5938 Q755.8656,527.9375 755.8656,524.8125 Q755.8656,521.6875 757.1781,520.0313 Q758.5063,518.375 761.0063,518.375 Q761.7094,518.375 762.35,518.5313 Q763.0063,518.6875 763.5688,518.9844 L763.5688,521.7031 Q762.9438,521.125 762.35,520.8594 Q761.7563,520.5781 761.1313,520.5781 Q759.7875,520.5781 759.1,521.6563 Q758.4125,522.7188 758.4125,524.8125 Q758.4125,526.9063 759.1,527.9844 Q759.7875,529.0469 761.1313,529.0469 Q761.7563,529.0469 762.35,528.7813 Q762.9438,528.5 763.5688,527.9219 L763.5688,530.6406 Z "/><text fill="#000000" font-family="sans-serif" font-size="14" lengthAdjust="spacingAndGlyphs" textLength="58" x="778.4" y="530.432">Diagram</text><line style="stroke: #000080; stroke-width: 1.5;" x1="729.5" x2="855.5" y1="541" y2="541"/><text fill="#000000" font-family="sans-serif" font-size="11" lengthAdjust="spacingAndGlyphs" textLength="54" x="734.5" y="556.7589">+id: String</text><text fill="#000000" font-family="sans-serif" font-size="11" lengthAdjust="spacingAndGlyphs" textLength="73" x="734.5" y="571.7408">+name: String</text><text fill="#000000" font-family="sans-serif" font-size="11" lengthAdjust="spacingAndGlyphs" textLength="69" x="734.5" y="586.7227">+code: String</text><text fill="#000000" font-family="sans-serif" font-size="11" lengthAdjust="spacingAndGlyphs" textLength="92" x="734.5" y="601.7046">+projectId: String</text><text fill="#000000" font-family="sans-serif" font-size="11" lengthAdjust="spacingAndGlyphs" textLength="111" x="734.5" y="616.6865">+createdAt: DateTime</text><text fill="#000000" font-family="sans-serif" font-size="11" lengthAdjust="spacingAndGlyphs" textLength="116" x="734.5" y="631.6684">+updatedAt: DateTime</text><text fill="#000000" font-family="sans-serif" font-size="11" lengthAdjust="spacingAndGlyphs" textLength="92" x="734.5" y="646.6502">+imageUrl: String</text><line style="stroke: #000080; stroke-width: 1.5;" x1="729.5" x2="855.5" y1="653.8732" y2="653.8732"/><!--MD5=[9b686d78586519123152e56a7aa561b8]
class ProjectComment--><rect fill="#ADD8E6" filter="url(#fpo1sc8g4377c)" height="137.8913" id="ProjectComment" style="stroke: #000080; stroke-width: 1.5;" width="143" x="892" y="516.5"/><ellipse cx="907" cy="532.5" fill="#ADD1B2" rx="11" ry="11" style="stroke: #000080; stroke-width: 1.0;"/><path d="M909.9688,538.1406 Q909.3906,538.4375 908.75,538.5781 Q908.1094,538.7344 907.4063,538.7344 Q904.9063,538.7344 903.5781,537.0938 Q902.2656,535.4375 902.2656,532.3125 Q902.2656,529.1875 903.5781,527.5313 Q904.9063,525.875 907.4063,525.875 Q908.1094,525.875 908.75,526.0313 Q909.4063,526.1875 909.9688,526.4844 L909.9688,529.2031 Q909.3438,528.625 908.75,528.3594 Q908.1563,528.0781 907.5313,528.0781 Q906.1875,528.0781 905.5,529.1563 Q904.8125,530.2188 904.8125,532.3125 Q904.8125,534.4063 905.5,535.4844 Q906.1875,536.5469 907.5313,536.5469 Q908.1563,536.5469 908.75,536.2813 Q909.3438,536 909.9688,535.4219 L909.9688,538.1406 Z "/><text fill="#000000" font-family="sans-serif" font-size="14" lengthAdjust="spacingAndGlyphs" textLength="111" x="921" y="537.932">ProjectComment</text><line style="stroke: #000080; stroke-width: 1.5;" x1="893" x2="1034" y1="548.5" y2="548.5"/><text fill="#000000" font-family="sans-serif" font-size="11" lengthAdjust="spacingAndGlyphs" textLength="54" x="898" y="564.2589">+id: String</text><text fill="#000000" font-family="sans-serif" font-size="11" lengthAdjust="spacingAndGlyphs" textLength="84" x="898" y="579.2408">+content: String</text><text fill="#000000" font-family="sans-serif" font-size="11" lengthAdjust="spacingAndGlyphs" textLength="92" x="898" y="594.2227">+projectId: String</text><text fill="#000000" font-family="sans-serif" font-size="11" lengthAdjust="spacingAndGlyphs" textLength="78" x="898" y="609.2046">+userId: String</text><text fill="#000000" font-family="sans-serif" font-size="11" lengthAdjust="spacingAndGlyphs" textLength="111" x="898" y="624.1865">+createdAt: DateTime</text><text fill="#000000" font-family="sans-serif" font-size="11" lengthAdjust="spacingAndGlyphs" textLength="116" x="898" y="639.1684">+updatedAt: DateTime</text><line style="stroke: #000080; stroke-width: 1.5;" x1="893" x2="1034" y1="646.3913" y2="646.3913"/><!--MD5=[a8b299f048336f25a58afef700824ca5]
class ProjectLike--><rect fill="#ADD8E6" filter="url(#fpo1sc8g4377c)" height="107.9276" id="ProjectLike" style="stroke: #000080; stroke-width: 1.5;" width="123" x="570" y="531.5"/><ellipse cx="593.55" cy="547.5" fill="#ADD1B2" rx="11" ry="11" style="stroke: #000080; stroke-width: 1.0;"/><path d="M596.5188,553.1406 Q595.9406,553.4375 595.3,553.5781 Q594.6594,553.7344 593.9563,553.7344 Q591.4563,553.7344 590.1281,552.0938 Q588.8156,550.4375 588.8156,547.3125 Q588.8156,544.1875 590.1281,542.5313 Q591.4563,540.875 593.9563,540.875 Q594.6594,540.875 595.3,541.0313 Q595.9563,541.1875 596.5188,541.4844 L596.5188,544.2031 Q595.8938,543.625 595.3,543.3594 Q594.7063,543.0781 594.0813,543.0781 Q592.7375,543.0781 592.05,544.1563 Q591.3625,545.2188 591.3625,547.3125 Q591.3625,549.4063 592.05,550.4844 Q592.7375,551.5469 594.0813,551.5469 Q594.7063,551.5469 595.3,551.2813 Q595.8938,551 596.5188,550.4219 L596.5188,553.1406 Z "/><text fill="#000000" font-family="sans-serif" font-size="14" lengthAdjust="spacingAndGlyphs" textLength="72" x="609.45" y="552.932">ProjectLike</text><line style="stroke: #000080; stroke-width: 1.5;" x1="571" x2="692" y1="563.5" y2="563.5"/><text fill="#000000" font-family="sans-serif" font-size="11" lengthAdjust="spacingAndGlyphs" textLength="54" x="576" y="579.2589">+id: String</text><text fill="#000000" font-family="sans-serif" font-size="11" lengthAdjust="spacingAndGlyphs" textLength="92" x="576" y="594.2408">+projectId: String</text><text fill="#000000" font-family="sans-serif" font-size="11" lengthAdjust="spacingAndGlyphs" textLength="78" x="576" y="609.2227">+userId: String</text><text fill="#000000" font-family="sans-serif" font-size="11" lengthAdjust="spacingAndGlyphs" textLength="111" x="576" y="624.2046">+createdAt: DateTime</text><line style="stroke: #000080; stroke-width: 1.5;" x1="571" x2="692" y1="631.4276" y2="631.4276"/><!--MD5=[344f95bec6f94264df851aab32a08db1]
class CommentLike--><rect fill="#ADD8E6" filter="url(#fpo1sc8g4377c)" height="107.9276" id="CommentLike" style="stroke: #000080; stroke-width: 1.5;" width="123" x="678" y="722"/><ellipse cx="693" cy="738" fill="#ADD1B2" rx="11" ry="11" style="stroke: #000080; stroke-width: 1.0;"/><path d="M695.9688,743.6406 Q695.3906,743.9375 694.75,744.0781 Q694.1094,744.2344 693.4063,744.2344 Q690.9063,744.2344 689.5781,742.5938 Q688.2656,740.9375 688.2656,737.8125 Q688.2656,734.6875 689.5781,733.0313 Q690.9063,731.375 693.4063,731.375 Q694.1094,731.375 694.75,731.5313 Q695.4063,731.6875 695.9688,731.9844 L695.9688,734.7031 Q695.3438,734.125 694.75,733.8594 Q694.1563,733.5781 693.5313,733.5781 Q692.1875,733.5781 691.5,734.6563 Q690.8125,735.7188 690.8125,737.8125 Q690.8125,739.9063 691.5,740.9844 Q692.1875,742.0469 693.5313,742.0469 Q694.1563,742.0469 694.75,741.7813 Q695.3438,741.5 695.9688,740.9219 L695.9688,743.6406 Z "/><text fill="#000000" font-family="sans-serif" font-size="14" lengthAdjust="spacingAndGlyphs" textLength="91" x="707" y="743.432">CommentLike</text><line style="stroke: #000080; stroke-width: 1.5;" x1="679" x2="800" y1="754" y2="754"/><text fill="#000000" font-family="sans-serif" font-size="11" lengthAdjust="spacingAndGlyphs" textLength="54" x="684" y="769.7589">+id: String</text><text fill="#000000" font-family="sans-serif" font-size="11" lengthAdjust="spacingAndGlyphs" textLength="104" x="684" y="784.7408">+commentId: String</text><text fill="#000000" font-family="sans-serif" font-size="11" lengthAdjust="spacingAndGlyphs" textLength="78" x="684" y="799.7227">+userId: String</text><text fill="#000000" font-family="sans-serif" font-size="11" lengthAdjust="spacingAndGlyphs" textLength="111" x="684" y="814.7046">+createdAt: DateTime</text><line style="stroke: #000080; stroke-width: 1.5;" x1="679" x2="800" y1="821.9276" y2="821.9276"/><!--MD5=[176d26cca1358d9d8199feb6ed8497d3]
reverse link AIModel to Conversation--><path d="M238.5,159.4 C238.5,193.17 238.5,232.92 238.5,265.96 " fill="none" id="AIModel&lt;-Conversation" style="stroke: #A80036; stroke-width: 1.0;"/><polygon fill="#FFFFFF" points="238.5,146.29,234.5,152.29,238.5,158.29,242.5,152.29,238.5,146.29" style="stroke: #A80036; stroke-width: 1.0;"/><text fill="#000000" font-family="sans-serif" font-size="13" lengthAdjust="spacingAndGlyphs" textLength="7" x="231.1172" y="167.9185">1</text><text fill="#000000" font-family="sans-serif" font-size="13" lengthAdjust="spacingAndGlyphs" textLength="20" x="217.4063" y="254.4206">0..*</text><!--MD5=[bf440fe0d074412bf986e082747df2dc]
reverse link Conversation to Message--><path d="M238.5,417.69 C238.5,452.21 238.5,491.73 238.5,523.63 " fill="none" id="Conversation&lt;-Message" style="stroke: #A80036; stroke-width: 1.0;"/><polygon fill="#FFFFFF" points="238.5,404.23,234.5,410.23,238.5,416.23,242.5,410.23,238.5,404.23" style="stroke: #A80036; stroke-width: 1.0;"/><text fill="#000000" font-family="sans-serif" font-size="13" lengthAdjust="spacingAndGlyphs" textLength="7" x="231.1555" y="425.8187">1</text><text fill="#000000" font-family="sans-serif" font-size="13" lengthAdjust="spacingAndGlyphs" textLength="20" x="217.2813" y="511.9992">0..*</text><!--MD5=[87e802f94dff5db0b14b612664619da8]
link User to Account--><path d="M683.2,115.73 C737.53,139.9 811.71,176.95 869.5,221 C878.76,228.06 887.91,235.99 896.72,244.28 " fill="none" id="User-Account" style="stroke: #A80036; stroke-width: 1.0;"/><text fill="#000000" font-family="sans-serif" font-size="13" lengthAdjust="spacingAndGlyphs" textLength="7" x="691.1613" y="115.014">1</text><text fill="#000000" font-family="sans-serif" font-size="13" lengthAdjust="spacingAndGlyphs" textLength="20" x="868.9021" y="232.3814">0..*</text><!--MD5=[db6fca201a91eaa11ccab8113827eb71]
link User to Session--><path d="M541.82,161.26 C524.88,180.59 506.87,201.43 490.5,221 C474.33,240.33 456.98,261.9 441.88,280.97 " fill="none" id="User-Session" style="stroke: #A80036; stroke-width: 1.0;"/><text fill="#000000" font-family="sans-serif" font-size="13" lengthAdjust="spacingAndGlyphs" textLength="7" x="528.4805" y="182.7876">1</text><text fill="#000000" font-family="sans-serif" font-size="13" lengthAdjust="spacingAndGlyphs" textLength="20" x="426.2928" y="269.1285">0..*</text><!--MD5=[aa2a9216602cb76c4bd3f66c5c3621e0]
reverse link User to Conversation--><path d="M523.36,112.53 C461.95,134.78 379.9,170.85 319.5,221 C304.27,233.64 290.49,249.78 278.79,265.88 " fill="none" id="User&lt;-Conversation" style="stroke: #A80036; stroke-width: 1.0;"/><polygon fill="#FFFFFF" points="535.74,108.13,528.7461,106.3733,524.4346,112.1535,531.4285,113.9102,535.74,108.13" style="stroke: #A80036; stroke-width: 1.0;"/><text fill="#000000" font-family="sans-serif" font-size="13" lengthAdjust="spacingAndGlyphs" textLength="7" x="520.7726" y="106.6302">1</text><text fill="#000000" font-family="sans-serif" font-size="13" lengthAdjust="spacingAndGlyphs" textLength="20" x="262.103" y="254.3319">0..*</text><!--MD5=[88cd0185d461c1f813eb1e2b5c50f17a]
reverse link User to Project--><path d="M650.67,172.93 C662.61,198.3 675.61,225.91 687.42,250.99 " fill="none" id="User&lt;-Project" style="stroke: #A80036; stroke-width: 1.0;"/><polygon fill="#FFFFFF" points="645.08,161.07,644.0205,168.2028,650.1972,171.9242,651.2567,164.7914,645.08,161.07" style="stroke: #A80036; stroke-width: 1.0;"/><text fill="#000000" font-family="sans-serif" font-size="13" lengthAdjust="spacingAndGlyphs" textLength="7" x="641.0374" y="182.8478">1</text><text fill="#000000" font-family="sans-serif" font-size="13" lengthAdjust="spacingAndGlyphs" textLength="20" x="662.7421" y="239.1102">0..*</text><!--MD5=[71cfa1037e088582c96b1067dde265b6]
reverse link User to ProjectComment--><path d="M694.68,126.84 C733.96,149.73 778.25,181.57 807.5,221 C870.81,306.35 835.16,352.43 879.5,449 C889.95,471.76 903.51,495.37 916.68,516.37 " fill="none" id="User&lt;-ProjectComment" style="stroke: #A80036; stroke-width: 1.0;"/><polygon fill="#FFFFFF" points="683.22,120.32,686.4572,126.7636,693.6503,126.2538,690.4131,119.8101,683.22,120.32" style="stroke: #A80036; stroke-width: 1.0;"/><text fill="#000000" font-family="sans-serif" font-size="13" lengthAdjust="spacingAndGlyphs" textLength="7" x="691.1833" y="138.8305">1</text><text fill="#000000" font-family="sans-serif" font-size="13" lengthAdjust="spacingAndGlyphs" textLength="20" x="890.4653" y="504.8208">0..*</text><!--MD5=[03805b834d9987de6ecee599a124656c]
reverse link User to ProjectLike--><path d="M613.41,174.27 C617.98,277.95 625.4,446.12 629.16,531.35 " fill="none" id="User&lt;-ProjectLike" style="stroke: #A80036; stroke-width: 1.0;"/><polygon fill="#FFFFFF" points="612.83,161.02,609.0976,167.19,613.3575,173.0084,617.0899,166.8384,612.83,161.02" style="stroke: #A80036; stroke-width: 1.0;"/><text fill="#000000" font-family="sans-serif" font-size="13" lengthAdjust="spacingAndGlyphs" textLength="7" x="605.8143" y="182.7932">1</text><text fill="#000000" font-family="sans-serif" font-size="13" lengthAdjust="spacingAndGlyphs" textLength="20" x="607.5018" y="519.8807">0..*</text><!--MD5=[44144867f7d2e2b84cf17f043e9811bd]
reverse link User to CommentLike--><path d="M571,173.51 C525.26,292.52 465.4,507.6 552.5,662 C579.15,709.24 634.38,738.97 677.94,756 " fill="none" id="User&lt;-CommentLike" style="stroke: #A80036; stroke-width: 1.0;"/><polygon fill="#FFFFFF" points="575.8,161.24,569.8862,165.3664,571.4207,172.4124,577.3345,168.2859,575.8,161.24" style="stroke: #A80036; stroke-width: 1.0;"/><text fill="#000000" font-family="sans-serif" font-size="13" lengthAdjust="spacingAndGlyphs" textLength="7" x="565.4869" y="182.7658">1</text><text fill="#000000" font-family="sans-serif" font-size="13" lengthAdjust="spacingAndGlyphs" textLength="20" x="650.1131" y="749.8224">0..*</text><!--MD5=[5a15343b47c0d20f7d7c03c0dfc6e96a]
reverse link Project to Diagram--><path d="M751.95,431.82 C758.71,457.26 765.91,484.39 772.34,508.61 " fill="none" id="Project&lt;-Diagram" style="stroke: #A80036; stroke-width: 1.0;"/><polygon fill="#FFFFFF" points="748.57,419.09,746.2409,425.9146,751.6447,430.6894,753.9738,423.8648,748.57,419.09" style="stroke: #A80036; stroke-width: 1.0;"/><text fill="#000000" font-family="sans-serif" font-size="13" lengthAdjust="spacingAndGlyphs" textLength="7" x="743.1078" y="440.6899">1</text><text fill="#000000" font-family="sans-serif" font-size="13" lengthAdjust="spacingAndGlyphs" textLength="20" x="749.3711" y="497.1424">0..*</text><!--MD5=[f07f5a92e7b085b114fb4c88c2d38104]
reverse link Project to ProjectComment--><path d="M799.45,428.86 C805.44,435.78 811.5,442.56 817.5,449 C840.61,473.79 867.42,499.46 891.71,521.7 " fill="none" id="Project&lt;-ProjectComment" style="stroke: #A80036; stroke-width: 1.0;"/><polygon fill="#FFFFFF" points="790.75,418.66,791.5998,425.8209,798.5367,427.7906,797.6869,420.6297,790.75,418.66" style="stroke: #A80036; stroke-width: 1.0;"/><text fill="#000000" font-family="sans-serif" font-size="13" lengthAdjust="spacingAndGlyphs" textLength="7" x="789.1605" y="440.8029">1</text><text fill="#000000" font-family="sans-serif" font-size="13" lengthAdjust="spacingAndGlyphs" textLength="20" x="863.9144" y="511.7447">0..*</text><!--MD5=[092829fe2c0e4529ed3f490a0cadc6e8]
reverse link Project to ProjectLike--><path d="M690.03,431.4 C677.1,465.23 663.01,502.08 651.9,531.14 " fill="none" id="Project&lt;-ProjectLike" style="stroke: #A80036; stroke-width: 1.0;"/><polygon fill="#FFFFFF" points="694.73,419.09,688.851,423.2658,690.4444,430.2986,696.3234,426.1229,694.73,419.09" style="stroke: #A80036; stroke-width: 1.0;"/><text fill="#000000" font-family="sans-serif" font-size="13" lengthAdjust="spacingAndGlyphs" textLength="7" x="684.8092" y="440.6899">1</text><text fill="#000000" font-family="sans-serif" font-size="13" lengthAdjust="spacingAndGlyphs" textLength="20" x="633.2975" y="519.6425">0..*</text><!--MD5=[0016efd4d2894fc860fadcc2fe890f6a]
link ProjectComment to CommentLike--><path d="M891.7,646.92 C862.52,671.47 829.15,699.56 801.1,723.16 " fill="none" id="ProjectComment-CommentLike" style="stroke: #A80036; stroke-width: 1.0;"/><text fill="#000000" font-family="sans-serif" font-size="13" lengthAdjust="spacingAndGlyphs" textLength="7" x="876.9347" y="649.3164">1</text><text fill="#000000" font-family="sans-serif" font-size="13" lengthAdjust="spacingAndGlyphs" textLength="20" x="808.9313" y="713.3905">0..*</text><!--MD5=[99f71582eb3c682b12255e10115a59d4]
@startuml
skinparam classAttributeIconSize 0
skinparam classBackgroundColor LightBlue
skinparam classBorderColor Navy
skinparam classFontColor Black
skinparam classFontSize 14

class Admin {
  + id: String
  + username: String
  + email: String
  + passwordHash: String
  + createdAt: DateTime
  + updatedAt: DateTime
}

class AIModel {
  + id: String
  + name: String
  + description: String?
  + createdAt: DateTime
  + updatedAt: DateTime
}

class Conversation {
  + id: String
  + userId: String
  + aiModelId: String
  + title: String?
  + createdAt: DateTime
  + updatedAt: DateTime
}

class Message {
  + id: String
  + conversationId: String
  + sender: String
  + content: String
  + createdAt: DateTime
}

class Account {
  + id: String
  + userId: String
  + type: String
  + provider: String
  + providerAccountId: String
  + refresh_token: String?
  + access_token: String?
  + expires_at: Int?
  + token_type: String?
  + scope: String?
  + id_token: String?
  + session_state: String?
}

class Session {
  + id: String
  + sessionToken: String
  + userId: String
  + expires: DateTime
}

class User {
  + id: String
  + name: String?
  + email: String?
  + emailVerified: DateTime?
  + image: String?
  + createdAt: DateTime
  + updatedAt: DateTime
}

class Project {
  + id: String
  + name: String
  + description: String?
  + imageUrl: String
  + isPublic: Boolean
  + userId: String
  + createdAt: DateTime
  + updatedAt: DateTime
}

class Diagram {
  + id: String
  + name: String
  + code: String
  + projectId: String
  + createdAt: DateTime
  + updatedAt: DateTime
  + imageUrl: String
}

class ProjectComment {
  + id: String
  + content: String
  + projectId: String
  + userId: String
  + createdAt: DateTime
  + updatedAt: DateTime
}

class ProjectLike {
  + id: String
  + projectId: String
  + userId: String
  + createdAt: DateTime
}

class CommentLike {
  + id: String
  + commentId: String
  + userId: String
  + createdAt: DateTime
}


AIModel "1" o- - "0..*" Conversation
Conversation "1" o- - "0..*" Message
User "1" - - "0..*" Account
User "1" - - "0..*" Session
User "1" o- - "0..*" Conversation
User "1" o- - "0..*" Project
User "1" o- - "0..*" ProjectComment
User "1" o- - "0..*" ProjectLike
User "1" o- - "0..*" CommentLike
Project "1" o- - "0..*" Diagram
Project "1" o- - "0..*" ProjectComment
Project "1" o- - "0..*" ProjectLike
ProjectComment "1" - - "0..*" CommentLike
@enduml

PlantUML version 1.2020.02(Sun Mar 01 11:22:07 CET 2020)
(GPL source distribution)
Java Runtime: OpenJDK Runtime Environment
JVM: OpenJDK 64-Bit Server VM
Java Version: 17.0.15+6-Ubuntu-0ubuntu124.04
Operating System: Linux
Default Encoding: UTF-8
Language: en
Country: US
--></g></svg>